<svg width="64" height="64" viewBox="0 0 64 64" fill="#4ca35a" xmlns="http://www.w3.org/2000/svg">
<path d="M27.9986 2.34671C22.6118 3.06993 17.5493 5.22712 13.1975 8.63125C11.8757 9.66621 9.51901 12.0229 8.48405 13.3447C6.30192 16.1378 4.56868 19.3424 3.50879 22.5346C2.39902 25.9013 2 28.4326 2 32.0736C2 35.7146 2.39902 38.2584 3.50879 41.5752C7.13737 52.4984 16.6141 60.3042 28.0983 61.813C30.0311 62.0623 33.8217 62.0623 35.7545 61.813C48.2612 60.167 58.3988 50.9522 61.167 38.6823C61.8653 35.6149 62.0648 31.3379 61.6658 28.2455C60.7929 21.5994 57.8377 15.5891 53.1243 10.8757C48.4109 6.16232 42.4006 3.20709 35.7545 2.33424C33.934 2.09732 29.7567 2.09732 27.9986 2.34671ZM35.8542 4.51637C41.9642 5.36429 47.7375 8.34446 52.0394 12.8708C56.1917 17.2226 58.7479 22.572 59.5584 28.5822C59.7829 30.3154 59.7829 33.8068 59.546 35.6523C58.6731 42.4855 55.082 49.007 49.7451 53.4585C46.1913 56.4387 41.3158 58.7206 36.8518 59.4937C34.308 59.9426 30.7293 60.0298 28.3103 59.6932C15.8534 57.9724 6.15229 48.371 4.3567 35.9516C4.13226 34.3929 4.09485 33.7445 4.15719 31.3878C4.21954 28.3453 4.41905 26.9861 5.16721 24.3925C7.0002 18.0456 11.0777 12.4843 16.5891 8.84323C22.2876 5.07749 29.0335 3.5687 35.8542 4.51637Z" fill="#4ca35a"/>
<path d="M29.1209 6.22468C25.8539 6.62369 23.0608 7.44667 20.2677 8.84324C12.6489 12.6464 7.41179 19.9409 6.1898 28.4201C5.92794 30.2406 5.92794 33.8442 6.1898 35.7022C7.81081 47.3361 17.088 56.4262 28.8092 57.8851C29.3828 57.9475 30.8167 58.0098 31.9888 58.0098C36.2783 58.0098 39.9318 57.1494 43.6726 55.2416C51.4036 51.3138 56.6657 43.8322 57.7256 35.1909C57.9001 33.8318 57.9001 30.3154 57.738 28.9563C57.0148 23.1705 54.3962 17.7713 50.3063 13.6938C46.3411 9.71609 41.1039 7.11 35.5551 6.3369C34.2832 6.14986 30.2307 6.08751 29.1209 6.22468ZM35.2309 8.45669C42.301 9.40436 48.7102 13.6938 52.5134 20.0407C53.9473 22.4473 55.1195 25.7641 55.5434 28.6695C55.8053 30.4775 55.8053 33.6697 55.5434 35.4154C53.9723 46.0018 45.8049 54.1693 35.2433 55.703C33.4602 55.9648 30.3928 55.9648 28.6221 55.703C18.0481 54.1568 9.83085 45.9644 8.29712 35.4279C8.04773 33.7071 8.04773 30.4401 8.29712 28.7194C9.66874 19.3549 16.3772 11.6738 25.43 9.11756C28.672 8.2073 31.7644 7.99532 35.2309 8.45669Z" fill="#4ca35a"/>
<path d="M25.2305 17.5094C20.9285 21.7989 18.9459 23.8812 18.896 24.1057C18.8462 24.3052 18.896 24.592 19.0083 24.804C19.108 24.991 20.1929 26.1507 21.4148 27.3602C23.5471 29.48 23.6718 29.5797 24.1332 29.5797C24.607 29.5797 24.7442 29.4675 28.273 25.9387L31.9265 22.2852L35.58 25.9387C39.1088 29.4675 39.246 29.5797 39.7198 29.5797C40.1812 29.5797 40.3059 29.48 42.4381 27.3602C43.6601 26.1507 44.745 24.991 44.8447 24.804C44.957 24.592 45.0068 24.3052 44.957 24.1057C44.9071 23.8812 42.9244 21.7989 38.6225 17.5094C32.7744 11.6613 32.3255 11.2498 31.9265 11.2498C31.5275 11.2498 31.0786 11.6613 25.2305 17.5094ZM37.201 19.0806L42.4007 24.2803L41.0291 25.6519L39.6575 27.0235L36.004 23.37C32.6497 20.0158 32.313 19.729 31.9265 19.729C31.5399 19.729 31.2033 20.0158 27.849 23.37L24.1955 27.0235L22.8239 25.6519L21.4523 24.2803L26.652 19.0806C29.5199 16.2126 31.8891 13.8684 31.9265 13.8684C31.9639 13.8684 34.3331 16.2126 37.201 19.0806Z" fill="#4ca35a"/>
<path d="M13.4967 29.2431C11.3395 31.4252 11.1025 31.687 11.1025 32.0736C11.1025 32.4601 11.3395 32.722 13.4967 34.9041C15.8284 37.2484 15.9032 37.3107 16.402 37.3107C16.9008 37.3107 16.9756 37.2484 19.3074 34.9041C21.4646 32.722 21.7015 32.4601 21.7015 32.0736C21.7015 31.687 21.4646 31.4252 19.3074 29.2431C16.9756 26.8988 16.9008 26.8365 16.402 26.8365C15.9032 26.8365 15.8284 26.8988 13.4967 29.2431ZM17.7736 33.4452L16.402 34.8169L15.0304 33.4452L13.6588 32.0736L15.0304 30.702L16.402 29.3303L17.7736 30.702L19.1453 32.0736L17.7736 33.4452Z" fill="#4ca35a"/>
<path d="M29.0334 29.1807C26.6892 31.5125 26.6892 31.525 26.6892 32.0736C26.6892 32.6223 26.6892 32.6347 29.0334 34.9665C32.1632 38.1088 31.6894 38.1088 34.8192 34.9665C37.9615 31.8367 37.9615 32.3105 34.8192 29.1807C31.6894 26.0385 32.1632 26.0385 29.0334 29.1807ZM33.298 30.7643L34.6072 32.0736L33.2605 33.4203L31.9263 34.7545L30.5921 33.4203L29.2454 32.0736L30.5547 30.7643C31.2779 30.0411 31.8889 29.4551 31.9263 29.4551C31.9637 29.4551 32.5747 30.0411 33.298 30.7643Z" fill="#4ca35a"/>
<path d="M44.5455 29.2431C42.3883 31.4252 42.1514 31.687 42.1514 32.0736C42.1514 32.4601 42.3883 32.722 44.5455 34.9041C46.8772 37.2484 46.9521 37.3107 47.4508 37.3107C47.9496 37.3107 48.0244 37.2484 50.3562 34.9041C52.5134 32.722 52.7503 32.4601 52.7503 32.0736C52.7503 31.687 52.5134 31.4252 50.3562 29.2431C48.0244 26.8988 47.9496 26.8365 47.4508 26.8365C46.9521 26.8365 46.8772 26.8988 44.5455 29.2431ZM48.8225 33.4452L47.4508 34.8169L46.0792 33.4452L44.7076 32.0736L46.0792 30.702L47.4508 29.3303L48.8225 30.702L50.1941 32.0736L48.8225 33.4452Z" fill="#4ca35a"/>
<path d="M21.4148 36.7745C20.1929 37.9965 19.108 39.1562 19.0083 39.3432C18.896 39.5552 18.8462 39.842 18.896 40.0415C18.9459 40.266 20.9285 42.3483 25.2305 46.6378C31.0786 52.4859 31.5275 52.8974 31.9265 52.8974C32.3255 52.8974 32.7744 52.4859 38.6225 46.6378C42.9244 42.3483 44.9071 40.266 44.957 40.0415C45.0068 39.842 44.957 39.5552 44.8447 39.3432C44.745 39.1562 43.6601 37.9965 42.4381 36.7745C40.3059 34.6672 40.1812 34.5675 39.7198 34.5675C39.246 34.5675 39.1088 34.6797 35.58 38.2085L31.9265 41.862L28.273 38.2085C24.7442 34.6797 24.607 34.5675 24.1332 34.5675C23.6718 34.5675 23.5471 34.6672 21.4148 36.7745ZM27.874 40.8021C31.2157 44.1314 31.5399 44.4182 31.9265 44.4182C32.313 44.4182 32.6497 44.1314 36.004 40.7772L39.6575 37.1237L41.0291 38.4953L42.4007 39.8669L37.1636 45.1041L31.9265 50.3412L26.6894 45.1041L21.4523 39.8669L22.7865 38.5327C23.5222 37.7846 24.1581 37.186 24.1955 37.186C24.2204 37.186 25.8789 38.807 27.874 40.8021Z" fill="#4ca35a"/>
</svg>
