<svg xmlns="http://www.w3.org/2000/svg" width="509" height="526" viewBox="0 0 509 526" fill="none">
<g clip-path="url(#clip0_235_213)">
<path d="M340.638 245.14C346.224 237.25 349.658 228.034 350.6 218.405C351.542 208.776 349.96 199.067 346.009 190.239C342.059 181.411 335.878 173.771 328.077 168.073C320.277 162.375 311.127 158.818 301.534 157.753V129.527H276.427V157.333H259.333V129.527H234.203V157.333H191.419V188.804H221.254V316.907H191.419V348.402H234.203V376.208H259.333V348.402H276.427V376.208H301.534V348.402H312.084C324.206 348.391 335.992 344.401 345.637 337.04C355.283 329.68 362.258 319.355 365.496 307.645C368.734 295.935 368.057 283.484 363.567 272.196C359.078 260.908 351.024 251.405 340.638 245.14ZM295.362 188.874C301.755 188.874 307.886 191.42 312.407 195.952C316.927 200.483 319.467 206.629 319.467 213.038C319.467 219.447 316.927 225.593 312.407 230.124C307.886 234.656 301.755 237.202 295.362 237.202H252.695V188.804L295.362 188.874ZM312.084 316.907H252.695V268.603H312.084C315.311 268.503 318.526 269.053 321.536 270.221C324.547 271.39 327.293 273.153 329.611 275.405C331.929 277.658 333.772 280.355 335.031 283.335C336.29 286.315 336.938 289.519 336.938 292.755C336.938 295.992 336.29 299.195 335.031 302.175C333.772 305.156 331.929 307.852 329.611 310.105C327.293 312.358 324.547 314.121 321.536 315.289C318.526 316.458 315.311 317.008 312.084 316.907Z" fill="#306a46" style="mix-blend-mode:color-dodge"/>
<path d="M300.439 130.531V158.547H301.348C310.761 159.598 319.738 163.093 327.391 168.687C335.044 174.281 341.108 181.78 344.984 190.443C348.861 199.106 350.415 208.633 349.493 218.082C348.572 227.532 345.206 236.576 339.729 244.323L339.077 245.21L340.032 245.77C350.246 251.909 358.171 261.235 362.595 272.318C367.018 283.402 367.697 295.634 364.527 307.141C361.356 318.648 354.512 328.797 345.041 336.034C335.569 343.27 323.993 347.197 312.084 347.211H300.439V375.181H277.359V347.375H258.215V375.181H235.228V347.375H192.421V317.935H222.325V187.777H192.421V158.36H235.228V130.531H258.308V158.36H277.452V130.531H300.439ZM251.531 238.136H295.222C301.752 237.936 307.947 235.196 312.495 230.496C317.043 225.796 319.587 219.505 319.587 212.956C319.587 206.408 317.043 200.117 312.495 195.417C307.947 190.717 301.752 187.976 295.222 187.777H251.67V238.136M251.67 317.935H312.084C318.614 317.735 324.809 314.995 329.357 310.295C333.905 305.594 336.449 299.303 336.449 292.755C336.449 286.207 333.905 279.916 329.357 275.216C324.809 270.515 318.614 267.775 312.084 267.576H251.67V317.935ZM301.534 129.527H276.427V157.333H259.333V129.527H234.203V157.333H191.419V188.804H221.254V316.907H191.419V348.402H234.203V376.208H259.333V348.402H276.427V376.208H301.534V348.402H312.084C324.206 348.391 335.992 344.401 345.637 337.04C355.283 329.68 362.258 319.355 365.496 307.645C368.734 295.935 368.057 283.484 363.567 272.196C359.078 260.908 351.024 251.405 340.638 245.14C346.224 237.25 349.658 228.034 350.6 218.405C351.542 208.776 349.96 199.067 346.009 190.239C342.059 181.411 335.878 173.771 328.077 168.073C320.277 162.375 311.127 158.818 301.534 157.753V129.527V129.527ZM252.625 237.132V188.804H295.292C301.685 188.804 307.816 191.35 312.337 195.882C316.858 200.413 319.397 206.559 319.397 212.968C319.397 219.377 316.858 225.523 312.337 230.054C307.816 234.586 301.685 237.132 295.292 237.132H252.625ZM252.625 316.907V268.603H312.084C315.311 268.503 318.526 269.053 321.536 270.221C324.547 271.39 327.293 273.153 329.611 275.405C331.929 277.658 333.772 280.355 335.031 283.335C336.29 286.315 336.938 289.519 336.938 292.755C336.938 295.992 336.29 299.195 335.031 302.175C333.772 305.156 331.929 307.852 329.611 310.105C327.293 312.358 324.547 314.121 321.536 315.289C318.526 316.458 315.311 317.008 312.084 316.907H252.625Z" fill="#306a46"/>
<path d="M91.483 208.602C91.7632 207.535 92.0974 206.483 92.4844 205.451L97.1424 190.976C98.5864 187.007 99.7509 184.439 99.7742 184.439L99.9139 184.135H100.217C100.217 184.135 105.62 182.571 110.744 181.333C113.352 180.703 115.937 180.119 117.847 179.723C117.847 179.723 119.757 179.326 120.805 179.186L124.741 172.182C125.207 171.411 125.649 170.571 126.115 169.707C126.977 168.119 127.932 166.368 129.05 164.617L137.597 152.314C138.256 151.375 138.971 150.479 139.74 149.629L140.834 148.321L146.447 141.714C147.721 140.043 149.131 138.481 150.663 137.045L152.293 135.457L153.294 136.485L151.617 138.095C150.156 139.477 148.801 140.967 147.565 142.555L141.952 149.185L140.811 150.493C140.159 151.263 139.46 152.057 138.878 152.827L130.354 165.108C129.259 166.765 128.351 168.446 127.489 170.057L125.999 172.765L121.62 180.61H121.201C120.828 180.61 119.664 180.82 118.15 181.17C116.24 181.567 113.678 182.127 111.163 182.758C106.761 183.808 102.243 185.092 101.009 185.466C100.659 186.236 99.681 188.478 98.4932 191.513L93.8352 205.941C92.9877 208.489 92.3261 211.095 91.8556 213.739L89.0608 227.186C89.2471 227.513 89.6198 228.143 90.1787 228.961L93.1598 233.28L97.8178 239.723L97.1191 246.214C96.9561 248.548 96.9561 251.443 96.9561 254.478C96.9561 256.253 96.9561 258.097 96.9561 259.942C96.8538 263.608 97.0329 267.276 97.4917 270.915C97.4917 271.872 97.6781 272.759 97.7479 273.599L98.3535 280.113L97.0492 281.911C96.5601 282.611 95.9313 283.498 95.419 284.245L93.09 288.191L94.4641 295.195C94.6271 295.942 94.7901 296.759 94.9299 297.646C95.1874 299.315 95.5688 300.961 96.0711 302.573L98.5631 310.977C98.8891 311.981 99.1686 313.009 99.4714 314.012C99.9402 315.794 100.508 317.547 101.172 319.265L106.924 333.484L106.249 335.678L105.201 339.834L103.803 345.857L108.461 354.566L114.051 363.204C114.633 364.068 115.215 364.978 115.798 365.889C117.287 368.336 118.944 370.676 120.758 372.893L122.365 374.924C126.221 380.18 130.414 385.179 134.919 389.889L141.906 397.01C142.301 397.01 143.14 397.01 144.235 397.01H150.267C154.529 397.01 158.698 397.01 158.744 397.01H159.024L163.519 400.839C165.219 402.123 167.408 403.64 169.714 405.228L173.626 407.959L175.606 409.337C176.794 410.177 177.935 410.971 179.076 411.671L188.648 417.158L195.938 415.36L203.67 412.745L208.095 414.66C208.934 414.987 209.842 415.407 210.82 415.85C212.902 416.865 215.068 417.693 217.295 418.325L231.269 422.784L230.826 424.139L216.852 419.726C214.564 419.06 212.335 418.201 210.191 417.158C209.237 416.714 208.328 416.317 207.513 415.991L203.554 414.286L196.287 416.761L188.392 418.699L178.168 413.002C176.957 412.255 175.839 411.415 174.581 410.668C173.952 410.201 173.277 409.734 172.625 409.29L168.689 406.559C166.36 404.948 164.194 403.43 162.447 402.123L158.371 398.551C157.347 398.551 153.713 398.551 150.104 398.551H144.071C142.371 398.551 141.323 398.387 141.277 398.387H141.044L133.847 390.94C129.264 386.217 125.007 381.185 121.108 375.881L119.524 373.873C117.679 371.61 115.99 369.223 114.47 366.729L112.7 364.208L107.134 355.406L102.266 346.067L104.805 335.398L105.364 333.67L99.7742 319.849C99.0987 318.145 98.5631 316.277 98.0274 314.456C97.7479 313.452 97.4685 312.448 97.1424 311.444L94.6504 303.04C94.1292 301.367 93.7322 299.658 93.4626 297.927C93.3229 297.086 93.1831 296.292 92.9968 295.592L91.5295 287.981L94.1846 283.568C94.7202 282.681 95.3724 281.771 95.8847 281.047L96.8629 279.693L96.304 273.716C96.304 272.876 96.1409 271.988 96.0478 271.055C95.5891 267.346 95.4101 263.607 95.5121 259.872C95.5121 258.074 95.5121 256.229 95.5121 254.478C95.5121 251.397 95.5121 248.478 95.6751 246.074L96.304 240.097L92.0186 234.097L88.9677 229.614C88.1059 228.354 87.6634 227.513 87.6401 227.49V227.256L90.5281 213.248C90.8308 211.777 91.0637 210.12 91.483 208.602Z" fill="#306a46" style="mix-blend-mode:screen"/>
<path d="M231.245 422.761L247.991 426.263C249.9 426.52 251.927 426.73 253.999 426.94C255.257 426.94 256.515 427.174 257.772 427.337C259.03 427.5 260.101 427.57 261.406 427.711C263.441 428.015 265.496 428.163 267.554 428.154H282.343L284.952 427.897L285.185 428.201C285.185 428.201 288.585 432.193 292.171 436.069C295.176 439.314 298.39 442.512 299.578 443.656L301.138 443.516C301.86 443.516 302.815 443.236 303.933 443.003L306.006 442.606L310.664 441.719C313.831 441.112 317.418 440.434 320.934 439.571L335.467 435.228C336.6 434.923 337.707 434.525 338.775 434.037C339.207 433.828 339.65 433.641 340.102 433.477L341.593 432.893L344.97 426.216L348.323 419.212H348.626C349.116 419.032 349.591 418.813 350.047 418.559L354.076 416.434C355.217 415.804 356.545 415.127 357.942 414.403C360.504 413.096 363.392 411.625 366.117 409.92L377.762 402.403C378.677 401.85 379.542 401.217 380.347 400.512C380.72 400.208 381.046 399.928 381.372 399.695L382.885 398.481L388.033 398.807L392.691 399.041L394.088 397.92L394.903 397.267C396.036 396.416 397.103 395.479 398.094 394.465L401.704 390.986C404.219 388.652 407.06 385.827 409.809 383.025L420.382 370.581C421.213 369.605 421.991 368.584 422.711 367.523L423.596 366.239L424.924 364.348L431.375 362.713L437.454 361.009C437.687 360.706 438.152 360.005 438.804 358.955L447.166 343.429C448.237 341.211 449.238 338.877 450.286 336.425C450.822 335.188 451.358 333.904 451.917 332.666C454.451 327.088 456.569 321.329 458.251 315.437C458.647 314.152 459.02 312.938 459.393 311.818C460.474 308.77 461.338 305.649 461.978 302.479C461.535 301.592 459.649 298.207 457.995 295.032C456.342 291.856 454.479 288.891 453.943 288.028H453.547L453.733 287.327C454.121 285.534 454.385 283.717 454.525 281.887L455.829 269.49C456.061 267.624 456.154 265.744 456.109 263.864V251.747C454.412 249.862 452.616 248.07 450.729 246.377L443.742 240.027H444.743C444.534 236.245 440.761 214.135 439.713 212.478L440.225 212.151L440.016 211.287L440.807 211.544C441.832 212.735 446.141 236.315 446.164 240.377L451.824 245.14C454.339 247.474 456.481 249.809 457.343 250.65H457.669V263.607C457.718 265.542 457.616 267.478 457.367 269.397L456.062 281.747C455.942 283.562 455.685 285.365 455.294 287.14C455.829 288.028 457.623 291.063 459.369 294.144C461.442 297.856 463.468 301.802 463.492 301.849L463.794 302.432L463.515 302.619C462.86 305.852 461.98 309.035 460.883 312.145C460.511 313.265 460.138 314.479 459.742 315.763C458.046 321.707 455.905 327.513 453.337 333.133L451.73 336.892C450.659 339.39 449.658 341.748 448.54 343.896L439.922 359.422C438.502 361.756 438.176 362.153 437.803 362.13L431.631 363.834L425.669 365.375L424.668 366.822C424.388 367.196 424.109 367.616 423.806 368.083C423.177 368.97 422.432 370.091 421.477 371.258L410.857 383.749C408.039 386.597 405.197 389.329 402.682 391.757L399.095 395.235C398.058 396.288 396.944 397.264 395.765 398.154L394.973 398.784L393.156 400.255L383.328 399.695L382.21 400.605C381.874 400.839 381.555 401.096 381.255 401.376C380.387 402.108 379.469 402.779 378.507 403.383L367.002 410.878C364.207 412.629 361.273 414.123 358.687 415.547C357.29 416.271 355.986 416.924 354.845 417.578L350.815 419.679C350.378 419.939 349.918 420.158 349.441 420.333L346.367 426.87L342.547 434.248L340.545 435.041L339.287 435.555C338.153 436.077 336.977 436.498 335.77 436.816L321.261 441.158C317.674 442.069 314.041 442.746 310.85 443.353L306.332 444.24L304.259 444.637C303.118 444.87 302.14 445.057 301.348 445.174L299.019 445.384L298.763 445.15C297.738 444.147 294.291 440.738 291.077 437.259C287.863 433.781 285.091 430.606 284.23 429.625L282.297 429.812H267.484C265.357 429.825 263.231 429.677 261.126 429.368C259.962 429.205 258.797 429.065 257.563 428.971L253.743 428.574C251.67 428.364 249.621 428.154 247.665 427.897L230.873 424.372L231.245 422.761Z" fill="#306a46" style="mix-blend-mode:screen"/>
<path d="M80.2805 205.45C83.5678 192.805 88.0439 180.501 93.6489 168.703C100.707 154.368 109.397 140.9 119.547 128.57C120.921 126.982 122.202 125.465 123.343 124.111C125.3 121.776 126.907 119.885 128.234 118.461L131.681 115.122L133.824 117.457L130.424 120.632C129.189 121.963 127.582 123.854 125.766 126.119C124.601 127.496 123.437 128.99 121.946 130.601C111.945 142.733 103.372 155.98 96.3971 170.08C86.8922 190.174 80.6796 211.672 77.9981 233.747C74.9203 259.085 76.8192 284.782 83.5877 309.39C90.3515 334.004 101.76 357.09 117.195 377.399C130.481 395.205 146.783 410.536 165.358 422.691C168.319 424.838 171.433 426.766 174.674 428.458L177.306 429.929L181.428 432.263C183.757 433.617 186.086 434.901 188.415 435.905L198.64 440.341C199.688 440.738 200.712 441.205 201.714 441.649C203.489 442.504 205.326 443.222 207.21 443.796L224.421 449.26L223.49 452.201L206.349 446.761C204.321 446.155 202.35 445.373 200.456 444.427C199.501 444.007 198.5 443.563 197.452 443.143L187.181 438.684C184.717 437.551 182.315 436.289 179.984 434.901C178.657 434.154 177.306 433.36 175.909 432.567L173.277 431.119C169.926 429.371 166.711 427.373 163.658 425.142C144.8 412.822 128.246 397.278 114.75 379.22C99.0751 358.59 87.4928 335.139 80.6298 310.137C73.7631 285.197 71.8248 259.152 74.9238 233.466C76.0693 224.016 77.859 214.656 80.2805 205.45V205.45Z" fill="#306a46" style="mix-blend-mode:screen"/>
<path d="M68.263 217.24L80.3504 219.785L79.9312 221.84C79.9312 222.19 79.7216 222.797 79.5818 223.497C79.4421 224.198 79.0695 225.832 78.8599 227.256C78.6502 228.68 78.5105 230.758 78.2543 233.046C77.7885 237.365 77.2529 242.385 76.8336 247.871C76.0875 268.589 78.4426 289.302 83.8206 309.32L86.7085 319.032C87.2496 321.067 87.9266 323.064 88.7348 325.009L95.0929 340.604L104.409 358.254L109.323 365.842C112.376 370.739 115.761 375.419 119.454 379.85L125.114 386.854C125.672 387.554 125.999 387.928 126.092 388.021L117.195 396.893C116.539 396.198 115.925 395.466 115.355 394.698L109.812 387.694C105.795 382.859 102.129 377.741 98.8426 372.379L92.531 362.457L83.7041 345.53L77.346 329.911C76.3268 327.515 75.4785 325.05 74.8074 322.534L71.8962 312.845C66.1764 291.478 63.6877 269.372 64.5133 247.264C64.9325 241.241 65.5148 235.988 65.9806 231.785C66.2135 229.591 66.4231 227.63 66.5861 225.902C66.8889 223.754 67.2382 222.19 67.5177 220.929C67.5177 220.392 67.7273 219.949 67.7972 219.552L68.263 217.24Z" fill="#306a46" style="mix-blend-mode:screen"/>
<path d="M131.681 115.122L141.673 105.41L156.578 93.5268C157.649 92.7797 158.697 92.1026 159.769 91.4022L172.159 83.3243C174.721 81.8535 177.329 80.4994 180.031 79.0986L184.689 76.6472C204.883 66.5739 226.591 59.8934 248.946 56.8725C300.763 50.0848 353.175 63.8669 394.996 95.2778C412.983 108.893 428.617 125.377 441.273 144.072C442.251 145.613 443.23 147.084 444.185 148.531C445.838 151.076 447.468 153.551 448.843 156.026L455.829 169.24C456.412 170.361 456.994 171.575 457.53 172.555L465.006 191.233L468.709 203.7L465.751 204.587L461.768 191.209L454.781 173.793C454.316 172.835 453.757 171.761 453.174 170.664L446.187 157.497C444.813 155.162 443.206 152.827 441.53 150.212L438.618 145.753C426.165 127.355 410.784 111.131 393.087 97.7292C351.907 66.796 300.294 53.2307 249.272 59.931C227.304 62.8984 205.973 69.4688 186.133 79.3787L181.475 81.7134C178.82 83.0908 176.235 84.4449 173.813 85.8457L161.469 93.9003C160.421 94.554 159.419 95.2311 158.441 95.8848L143.163 108.188L133.847 117.247L131.681 115.122Z" fill="#306a46" style="mix-blend-mode:screen"/>
<path d="M232.899 50.4288L242.075 48.6545C243.123 48.4444 244.241 48.2109 245.406 48.0708L262.337 46.4599C284.412 45.4249 306.52 47.6112 327.968 52.9503C349.21 58.7823 369.491 67.6853 388.172 79.3787L402.286 89.1843C403.235 89.9133 404.145 90.6927 405.011 91.5189L411.998 97.589L403.986 106.928L397.884 101.721L396.79 100.764C396.254 100.297 395.695 99.807 395.043 99.34L381.255 89.7212C363.741 78.8091 344.763 70.4602 324.894 64.9271C304.72 59.9326 283.934 57.8804 263.176 58.8336L246.64 60.3978C245.941 60.3978 245.219 60.6313 244.521 60.7714C243.822 60.9115 243.449 61.0049 242.937 61.0749L235.228 62.5924L232.899 50.4288Z" fill="#306a46" style="mix-blend-mode:screen"/>
<path d="M224.305 449.189L241.889 452.878C243.833 453.334 245.812 453.623 247.804 453.742L251.158 454.092L262.221 455.283C264.809 455.485 267.405 455.556 270 455.493C271.56 455.493 273.144 455.493 274.658 455.493H277.615C281.231 455.63 284.851 455.489 288.445 455.073C310.647 453.648 332.427 448.33 352.795 439.36C376.194 429.262 397.44 414.749 415.375 396.613C433.315 378.541 447.556 357.128 457.297 333.577C465.789 313.012 470.901 291.204 472.435 269C473.27 253.322 472.301 237.599 469.547 222.143C469.128 220.019 468.755 218.104 468.429 216.33C467.87 213.412 467.405 210.984 466.962 209.139L465.658 204.703L468.616 203.816L469.943 208.322C470.432 210.307 470.898 212.781 471.457 215.746C471.806 217.497 472.156 219.435 472.575 221.513C475.378 237.23 476.37 253.219 475.533 269.163C473.952 291.709 468.762 313.852 460.161 334.744C450.288 358.713 435.824 380.509 417.588 398.901C399.376 417.317 377.807 432.058 354.053 442.326C333.41 451.412 311.34 456.809 288.841 458.271C285.139 458.695 281.41 458.843 277.685 458.715H274.821C273.19 458.715 271.607 458.715 270.163 458.715C267.451 458.773 264.738 458.687 262.035 458.458L250.949 457.291L247.665 456.941C245.531 456.808 243.412 456.496 241.33 456.007L223.583 452.224L224.305 449.189Z" fill="#306a46" style="mix-blend-mode:screen"/>
<path d="M335.91 448.256L339.846 444.567C340.305 444.42 340.756 444.248 341.196 444.053L349.697 440.598C355.05 438.573 360.25 436.162 365.255 433.384L377.296 426.73L390.222 418.302L403.194 408.006C404.915 406.681 406.541 405.238 408.062 403.687L415.445 396.519C429.918 381.689 442.094 364.77 451.567 346.324C453.896 341.398 455.806 336.845 457.529 332.83C458.414 330.729 459.206 328.861 459.858 327.227C460.301 326.129 460.65 324.892 460.976 323.888C461.302 322.884 461.349 322.604 461.535 322.114L462.117 320.269L473.902 324.005L473.25 326.013L472.784 327.507C472.412 328.744 471.922 330.285 471.27 332.013C470.618 333.74 469.687 335.678 468.941 337.686C467.265 341.585 465.215 346.464 462.7 351.694C452.617 371.398 439.622 389.462 424.155 405.274L416.725 412.489C414.859 414.396 412.859 416.168 410.74 417.788L397.255 428.458L377.296 440.995L371.264 444.147C365.824 447.152 360.182 449.773 354.379 451.991L346.041 455.376C344.737 455.937 343.852 456.217 343.712 456.287L341.825 450.38L335.91 448.256Z" fill="#306a46" style="mix-blend-mode:screen"/>
<path d="M221.812 429.933L221.247 431.713L228.327 433.97L228.892 432.19L221.812 429.933Z" fill="#306a46" style="mix-blend-mode:screen"/>
<path d="M194.796 421.477L195.565 419.773L196.66 420.24L205.3 423.975L204.555 425.703L195.961 421.967L194.796 421.477ZM211.099 428.481L211.658 426.683L215.035 427.757L214.476 429.532L211.099 428.481Z" fill="#306a46" style="mix-blend-mode:screen"/>
<path d="M95.8848 221.233L97.7247 221.606L97.352 223.474C97.352 224.011 97.0959 224.712 96.9328 225.459C96.511 227.18 96.1998 228.927 96.0012 230.688C96.0012 231.085 96.0012 231.529 96.0012 231.972L94.138 231.809C94.138 231.365 94.138 230.945 94.138 230.525C94.3552 228.678 94.6819 226.846 95.1162 225.038C95.2792 224.315 95.419 223.684 95.5354 223.124L95.8848 221.233ZM93.1599 238.836L95.0231 239.046C95.0231 240.167 94.7669 241.381 94.6737 242.548L92.7872 242.362C92.9968 241.148 93.1599 239.98 93.1599 238.836ZM92.2981 249.506H94.1613C94.0449 252.097 94.0449 254.549 94.1613 257C94.2778 259.451 94.1613 261.366 94.1613 263.63H92.2749C92.2749 261.296 92.2749 259.125 92.2749 257C92.2749 254.875 92.2516 252.144 92.368 249.506H92.2981ZM92.6242 269.094L94.5107 268.977C94.7436 272.432 95.0696 275.981 95.5354 279.506L93.6722 279.74C93.2763 276.191 92.927 272.596 92.6941 269.094H92.6242ZM94.697 286.79L96.5369 286.487C96.7232 287.654 96.9328 288.821 97.1424 289.965L95.3025 290.316C95.1628 289.125 94.9532 287.958 94.7669 286.79H94.697ZM96.7232 297.296L98.5398 296.876C99.5879 301.545 100.869 306.215 102.126 310.534L100.333 311.071C99.0522 306.612 97.8178 301.966 96.7931 297.296H96.7232ZM101.963 316.16L103.733 315.577C104.851 318.915 106.062 322.254 107.413 325.476L105.69 326.199C104.409 322.931 103.175 319.546 102.033 316.16H101.963ZM108.531 332.737L110.231 331.943C110.651 332.9 111.116 333.834 111.559 334.791L111.745 335.095L110.092 335.982L109.905 335.631C109.463 334.651 109.044 333.694 108.601 332.737H108.531ZM113.352 342.262L115.006 341.398C117.05 345.61 119.385 349.675 121.993 353.562L120.479 354.659C117.824 350.707 115.466 346.563 113.422 342.262H113.352ZM123.437 359.072L125.02 358.044L128.095 362.714L131.122 366.542L129.655 367.71L125.929 362.83L123.437 359.072ZM134.01 373.36L135.501 372.216C136.223 373.15 136.945 374.037 137.713 374.924L136.269 376.138C135.478 375.251 134.732 374.317 133.987 373.36H134.01ZM140.997 381.438L142.348 380.13L144.957 382.885C145.888 383.819 146.796 384.753 147.681 385.687L150.919 389.049C151.338 389.446 151.804 389.842 152.293 390.263L151.082 391.687C150.569 391.267 150.08 390.823 149.614 390.379L146.331 386.994L143.606 384.169C142.767 383.189 141.906 382.325 141.067 381.438H140.997ZM154.971 395.025L156.182 393.578L160.7 397.383C161.85 398.458 163.055 399.471 164.31 400.418L163.169 401.913C161.772 400.839 160.561 399.811 159.443 398.784L154.971 395.025ZM168.945 406.022L170.016 404.457C170.901 405.088 171.786 405.671 172.602 406.302L172.904 406.512L171.833 408.053L171.53 407.819C170.832 407.212 170.016 406.629 169.085 406.022H168.945ZM177.702 412.068L178.727 410.481C179.839 411.211 180.99 411.882 182.174 412.489L191.001 417.415L190.092 419.049L181.289 414.146C180.104 413.514 178.954 412.821 177.842 412.068H177.702Z" fill="#306a46" style="mix-blend-mode:screen"/>
<path d="M98.0968 210.61L99.9367 211.007L98.4229 218.291L96.583 217.918L98.0968 210.61Z" fill="#306a46" style="mix-blend-mode:screen"/>
<path d="M98.1206 210.517L100.38 203.419L102.173 203.98L99.9139 211.1L98.1206 210.517Z" fill="#306a46" style="mix-blend-mode:screen"/>
<path d="M102.476 196.719L103.547 193.334L105.34 193.894L104.269 197.279L102.476 196.719ZM106.365 186.773L110.068 178.158C110.231 177.738 110.394 177.341 110.557 176.991L112.257 177.761L111.792 178.859L108.065 187.52L106.365 186.773Z" fill="#306a46" style="mix-blend-mode:screen"/>
<path d="M112.979 172.345L117.87 163.427C118.383 162.399 119.081 161.092 119.943 159.831L121.527 160.858C120.801 161.971 120.14 163.125 119.547 164.314L114.61 173.162L112.979 172.345ZM123.972 154.088L124.182 153.784C124.787 152.944 125.393 152.08 125.999 151.193L127.536 152.267C126.93 153.154 126.325 154.018 125.719 154.858L125.509 155.185L123.972 154.088ZM130.098 145.356C131.146 143.979 132.17 142.741 133.195 141.621L136.968 137.185L138.389 138.399L134.592 142.882C133.522 144.028 132.519 145.237 131.588 146.5L130.098 145.356ZM140.392 133.076L141.696 131.582L145.073 128.407C146.005 127.519 146.959 126.609 147.891 125.675L150.523 123.13L151.827 124.484L149.195 127.029L146.377 129.761L143.047 133.006C142.651 133.426 142.232 133.916 141.836 134.383L140.392 133.076ZM155.786 118.204C156.695 117.434 157.603 116.687 158.558 115.869L159.722 117.364C158.791 118.087 157.882 118.811 156.997 119.582L155.786 118.204ZM164.124 111.597L168.992 107.838L172.811 105.34L173.836 106.928L169.178 110.009L165.358 113.068L164.124 111.597ZM177.236 102.492C181.176 99.8067 185.31 97.4188 189.603 95.3477L190.442 97.0054C186.24 99.0564 182.186 101.397 178.308 104.009L177.236 102.492ZM195.868 92.0792L196.217 91.8691L199.105 90.515L199.897 92.2193C198.966 92.6629 198.011 93.0831 197.079 93.55L196.753 93.7368L195.868 92.0792ZM205.65 87.6667C208.91 86.3359 212.264 85.0752 215.641 83.9312L216.247 85.7056C212.916 86.8262 209.586 88.0402 206.349 89.3943L205.65 87.6667ZM220.718 82.297C225.19 80.9429 229.825 79.7288 234.483 78.6782L234.879 80.4993C230.221 81.5499 225.563 82.8339 221.277 84.0947L220.718 82.297ZM241.446 77.2541L244.94 76.6471L245.243 78.4915L241.772 79.0985L241.446 77.2541ZM251.973 75.6198C255.537 75.1529 259.1 74.8027 262.594 74.5692L262.733 76.437C259.263 76.6938 255.746 77.0206 252.206 77.4876L251.973 75.6198ZM267.927 74.2891C270.256 74.2891 272.422 74.2891 274.565 74.2891C276.707 74.2891 279.502 74.2891 282.157 74.2891V76.1568C279.572 76.0401 277.126 76.0401 274.681 76.1568C272.236 76.2735 270.349 76.1568 268.09 76.1568L267.927 74.2891ZM289.26 74.7326L292.801 75.1062L292.591 76.9739C291.45 76.9739 290.262 76.7171 289.074 76.6237L289.26 74.7326ZM299.811 75.9H301.068C302.909 76.1291 304.736 76.4564 306.542 76.8805C307.264 77.044 307.916 77.2074 308.475 77.3008L310.361 77.6977L309.965 79.5187L308.125 79.1452C307.566 79.1452 306.891 78.8884 306.122 78.7249C304.404 78.3022 302.662 77.9826 300.905 77.7677H299.624L299.811 75.9Z" fill="#306a46" style="mix-blend-mode:screen"/>
<path d="M313.635 78.5093L313.255 80.3376L320.528 81.8581L320.908 80.0297L313.635 78.5093Z" fill="#306a46" style="mix-blend-mode:screen"/>
<path d="M320.981 80.0263L320.417 81.8066L327.499 84.0586L328.063 82.2783L320.981 80.0263Z" fill="#306a46" style="mix-blend-mode:screen"/>
<path d="M334.233 86.1959L334.792 84.3982L338.169 85.4721L337.61 87.2465L334.233 86.1959ZM344.015 90.0014L344.76 88.2737L353.377 91.9859L354.518 92.4761L353.75 94.1804L352.655 93.7369L344.015 90.0014Z" fill="#306a46" style="mix-blend-mode:screen"/>
<path d="M358.198 96.5383L359.107 94.9041L367.98 99.8302C369.212 100.449 370.41 101.134 371.567 101.885L370.565 103.472C369.452 102.75 368.302 102.087 367.118 101.488L358.198 96.5383ZM376.271 107.395L377.343 105.854L377.669 106.064C378.507 106.694 379.345 107.278 380.23 107.885L379.182 109.426C378.274 108.819 377.412 108.212 376.574 107.605L376.271 107.395ZM384.935 113.488L386.053 111.994C387.45 113.044 388.661 114.072 389.779 115.099L394.204 118.881L392.993 120.305L388.545 116.523C387.45 115.566 386.263 114.585 384.935 113.558V113.488ZM397.046 123.761L398.257 122.313L399.724 123.62L402.985 127.029L405.71 129.831L408.271 132.469L406.921 133.753C406.059 132.889 405.22 132.002 404.382 131.138L401.634 128.406L398.42 125.068L397.046 123.761ZM411.648 138.959L413.069 137.745C413.838 138.656 414.606 139.59 415.398 140.523L413.931 141.691C413.139 140.827 412.394 139.916 411.648 139.029V138.959ZM418.216 147.271L419.683 146.103L423.41 150.983L425.902 154.812L424.341 155.839L421.267 151.169L418.216 147.271ZM427.253 160.321L428.79 159.247C431.456 163.205 433.838 167.347 435.917 171.644L434.24 172.485C432.2 168.293 429.865 164.252 427.253 160.391V160.321ZM437.524 178.812L439.177 177.901L439.363 178.252C439.852 179.255 440.295 180.189 440.738 181.147L439.037 181.94C438.595 181.006 438.152 180.049 437.687 179.115L437.524 178.812ZM441.832 188.407L443.579 187.707C444.906 190.976 446.164 194.337 447.282 197.723L445.512 198.33C444.394 195.038 443.16 191.723 441.832 188.477V188.407ZM447.166 203.443L448.982 202.882C450.333 207.365 451.544 211.987 452.592 216.68L450.752 217.077C449.681 212.454 448.47 207.785 447.166 203.443ZM452.15 223.988L453.989 223.661C454.222 224.828 454.432 225.995 454.618 227.163L452.755 227.466C452.522 226.322 452.336 225.155 452.103 223.988H452.15ZM453.78 234.47L455.643 234.214C456.086 237.786 456.435 241.358 456.668 244.86L454.805 245C454.525 241.521 454.152 237.996 453.733 234.47H453.78ZM455.084 250.276H456.947C456.947 252.611 456.947 254.782 456.947 256.93C456.947 259.078 456.947 261.879 456.947 264.541H455.061C455.061 261.949 455.201 259.498 455.061 257.047C454.921 254.595 455.107 252.541 455.038 250.276H455.084ZM454.642 271.288L456.505 271.475C456.388 272.689 456.272 273.809 456.132 275.023L454.269 274.813C454.362 273.809 454.479 272.619 454.595 271.405L454.642 271.288ZM453.5 281.864L455.364 282.051C455.364 282.471 455.364 282.915 455.247 283.312C455.03 285.158 454.703 286.99 454.269 288.798C454.106 289.522 453.966 290.175 453.873 290.736L453.477 292.603L451.637 292.23L452.033 290.386C452.033 289.825 452.266 289.148 452.452 288.378C452.854 286.652 453.165 284.906 453.384 283.148C453.361 282.868 453.407 282.494 453.454 281.981L453.5 281.864Z" fill="#306a46" style="mix-blend-mode:screen"/>
<path d="M450.892 295.662L452.732 296.059L451.218 303.343L449.378 302.969L450.892 295.662Z" fill="#306a46" style="mix-blend-mode:screen"/>
<path d="M447.166 309.973L449.401 302.876L451.195 303.436L448.936 310.557L447.166 309.973Z" fill="#306a46" style="mix-blend-mode:screen"/>
<path d="M437.058 336.192L437.523 335.071L441.25 326.409L442.973 327.18L439.247 335.795C439.084 336.192 438.921 336.589 438.758 336.939L437.058 336.192ZM444.045 319.966L445.116 316.604L446.886 317.164L445.838 320.549L444.045 319.966Z" fill="#306a46" style="mix-blend-mode:screen"/>
<path d="M239.397 434.364L241.237 434.738C241.772 434.738 242.448 434.971 243.216 435.158C244.936 435.57 246.678 435.881 248.433 436.092L249.714 436.209L249.551 438.076H248.27C246.428 437.859 244.601 437.531 242.797 437.096L240.887 436.699L239.001 436.302L239.397 434.364ZM256.771 436.979L260.265 437.353L260.102 439.22L256.562 438.847L256.771 436.979ZM267.275 437.843C269.86 437.96 272.305 437.983 274.751 437.843C277.196 437.703 279.106 437.843 281.342 437.843V439.711C279.013 439.711 276.847 439.827 274.704 439.711C272.562 439.594 269.767 439.711 267.135 439.711L267.275 437.843ZM286.629 437.516C290.076 437.283 293.616 436.932 297.132 436.489L297.365 438.357C293.802 438.8 290.239 439.15 286.745 439.384L286.629 437.516ZM304.096 435.462L307.566 434.855L307.916 436.699L304.399 437.329L304.096 435.462ZM314.46 433.454C319.118 432.427 323.66 431.119 328.085 429.882L328.62 431.656C324.172 433.034 319.537 434.248 314.879 435.298L314.46 433.454ZM333.092 428.247C336.422 427.127 339.753 425.913 342.967 424.559L343.689 426.31C340.428 427.64 337.051 428.901 333.674 430.022L333.092 428.247ZM349.395 421.757L352.236 420.403L352.539 420.24L353.424 421.897L353.075 422.084C352.097 422.574 351.142 423.018 350.187 423.461L349.395 421.757ZM358.827 416.948C363.039 414.916 367.094 412.575 370.961 409.944L372.056 411.485C368.102 414.148 363.97 416.535 359.689 418.629L358.827 416.948ZM375.433 407.025L380.091 403.944L383.91 400.885L385.075 402.356L380.207 406.092L376.504 408.566L375.433 407.025ZM389.57 396.519C390.502 395.796 391.387 395.049 392.272 394.185L393.483 395.609C392.598 396.379 391.666 397.15 390.711 397.944L389.57 396.519ZM397.465 389.515L400.074 386.947L402.892 384.216L406.245 380.994C406.641 380.574 407.037 380.083 407.457 379.616L408.877 380.83L407.573 382.301L404.196 385.593L401.401 388.301L398.769 390.869L397.465 389.515ZM410.88 375.507L414.676 371.048C415.701 369.951 416.679 368.714 417.704 367.429L419.195 368.55C418.123 369.951 417.122 371.165 416.074 372.309L412.324 376.721L410.88 375.507ZM421.78 361.873L423.596 359.258L423.829 358.955L425.366 360.052L425.134 360.355C424.528 361.196 423.923 362.036 423.34 362.924L421.78 361.873ZM427.789 353.141C428.627 351.834 429.279 350.69 429.792 349.686L434.706 340.838L436.336 341.748L431.445 350.55C430.824 351.788 430.132 352.988 429.372 354.145L427.789 353.141Z" fill="#306a46" style="mix-blend-mode:screen"/>
<path d="M228.805 432.166L228.423 433.994L235.695 435.519L236.077 433.691L228.805 432.166Z" fill="#306a46" style="mix-blend-mode:screen"/>
<path d="M61.0194 206.618L63.0456 207.038L61.3455 215.116L59.3425 214.789L61.0194 206.618ZM57.6657 222.797L59.6919 223.194L59.5754 223.708L58.7836 231.295L56.7341 231.132L57.6657 222.797ZM55.8956 239.303L57.9451 239.513L57.5725 243.109C57.3882 244.658 57.2949 246.217 57.293 247.778H55.2435C55.242 246.217 55.3354 244.658 55.523 243.109L55.8956 239.303ZM55.2202 255.903H57.293V264.167H55.2202V255.903ZM55.7093 272.479L57.7355 272.292L58.5041 280.463L56.4779 280.673L55.7093 272.479ZM57.3163 288.985L59.3658 288.658C59.5288 289.732 59.7617 290.806 59.9713 291.903C60.181 293.001 60.3207 293.584 60.4604 294.448L60.9262 296.783L58.9 297.18L58.4342 294.845C58.2945 294.004 58.1314 293.164 57.9451 292.323C57.7122 291.203 57.4793 290.082 57.293 288.985H57.3163ZM60.4604 305.328L62.4867 304.931L63.3018 309.11C63.6279 310.324 63.9772 311.608 64.3498 312.892L62.3469 313.452L61.2989 309.553L60.4604 305.328ZM64.7225 321.39L66.7021 320.783C67.5173 323.374 68.379 325.966 69.3106 328.581L67.3775 329.258C66.4226 326.55 65.5376 323.911 64.6992 321.297L64.7225 321.39ZM70.2655 337.032L72.1985 336.192C73.1767 338.737 74.2247 341.258 75.3194 343.779L73.4096 344.62C72.1985 342.052 71.2436 339.507 70.2422 336.939L70.2655 337.032ZM76.7866 352.254L78.6498 351.39C79.8143 353.865 80.9788 356.317 82.283 358.768L80.4431 359.702C79.1855 357.204 77.9511 354.659 76.8565 352.161L76.7866 352.254ZM84.3791 367.056L86.1492 366.005L86.8013 367.173C87.9891 369.111 89.1303 371.072 90.4345 372.986L88.6878 374.107C87.4534 372.169 86.219 370.185 85.0312 368.2L84.3791 367.056ZM93.2992 381.064L94.976 379.873C96.5364 382.208 98.1434 384.356 99.7737 386.551L98.1202 387.788C96.4666 385.43 94.8363 383.189 93.2759 380.924L93.2992 381.064ZM103.174 394.348L104.781 393.064C106.505 395.212 108.251 397.313 110.021 399.391L108.438 400.745C106.644 398.504 104.804 396.379 103.151 394.208L103.174 394.348ZM113.911 406.956L115.448 405.555C117.288 407.609 119.174 409.594 121.061 411.531L119.593 412.979C117.66 410.901 115.774 408.87 113.887 406.815L113.911 406.956ZM125.556 418.792L126.883 417.228L133.148 422.574L131.821 424.139L125.556 418.792ZM138.086 429.508L139.436 427.944C140.415 428.808 141.416 429.648 142.441 430.419L145.911 432.754L144.746 434.435L141.23 432.1C140.135 431.119 139.11 430.255 138.086 429.368V429.508ZM151.501 439.244L152.688 437.563L159.373 442.232L158.371 444.03L157.23 443.283L151.501 439.244ZM165.474 448.022L166.476 446.225L169.993 448.186C171.227 448.839 172.461 449.54 173.672 450.24L172.648 452.038C171.46 451.361 170.319 450.66 168.991 450.007L165.474 448.022ZM180.1 455.82L180.916 453.929L188.462 457.197L187.646 459.112L180.1 455.82ZM195.309 462.264L196.124 460.373L198.127 461.236L203.81 463.034L203.181 464.995L197.428 463.151L195.309 462.264ZM211.029 467.517L211.658 465.532L219.507 468.03L218.878 469.991L211.029 467.517Z" fill="#306a46" style="mix-blend-mode:screen"/>
<path d="M62.1841 201.061L64.6761 193.193L66.6324 193.824L64.1404 201.692L62.1841 201.061ZM67.1681 185.326L69.008 179.536L69.8697 177.434L71.7562 178.252L70.8712 180.259L69.0779 185.933L67.1681 185.326ZM73.1769 169.847L76.4375 162.282L78.324 163.1L75.0634 170.664L73.1769 169.847ZM80.1639 154.812C80.8393 153.621 81.538 152.477 82.1901 151.146L84.1697 147.621L85.963 148.625L84.0067 152.15C83.3313 153.387 82.6326 154.625 81.9339 155.839L80.1639 154.812ZM88.1756 140.407L88.9441 139.263L92.9034 133.519L94.6036 134.71L89.9456 141.411L88.1756 140.407ZM97.4915 126.749L100.147 123.247C100.962 122.126 101.847 121.099 102.732 120.072L104.292 121.426C103.43 122.43 102.592 123.41 101.8 124.438L99.4712 127.916L97.4915 126.749ZM107.856 113.791L113.189 107.511L114.773 108.842L109.416 115.122L107.856 113.791ZM118.988 101.511C120.944 99.5967 122.971 97.7056 124.997 95.8145L126.394 97.3554C124.368 99.1998 122.365 101.091 120.432 102.982L118.988 101.511ZM131.215 90.3281C133.311 88.5537 135.431 86.7794 137.597 85.0517L138.878 86.6626C136.735 88.3903 134.616 90.1413 132.543 91.8923L131.215 90.3281ZM144.397 79.9855C146.587 78.3512 148.846 76.717 151.105 75.1528L152.269 76.8571C149.94 78.4213 147.821 80.0089 145.632 81.5264L144.397 79.9855ZM157.975 70.6469C159.932 69.3861 161.888 68.1488 163.868 66.9581L165.032 66.3044L166.08 68.0787L164.916 68.7324C162.959 69.8998 161.026 71.0671 159.093 72.3745L157.975 70.6469ZM172.345 62.2654C174.814 61.0047 177.283 59.7907 179.775 58.6L180.66 60.4911C178.191 61.635 175.722 62.8257 173.3 64.1098L172.345 62.2654ZM187.321 55.2614C189.859 54.1641 192.421 53.1369 194.983 52.1096L195.728 54.0474C193.19 55.0513 190.651 56.0785 188.136 57.1758L187.321 55.2614ZM202.622 49.1446C205.23 48.2341 207.839 47.3469 210.447 46.5064L211.076 48.4909C208.491 49.308 205.883 50.1718 203.297 51.1057L202.622 49.1446ZM218.389 44.1251L222.255 43.0745L226.471 42.2573L226.867 44.2651L222.721 45.0823L218.925 46.1329L218.389 44.1251ZM234.576 40.6698L236.905 40.2028L239.42 39.7359C240.538 39.5024 241.749 39.269 242.727 39.0822L243.053 41.1367C241.982 41.3001 240.911 41.5336 239.839 41.7437L237.301 42.234L234.972 42.7009L234.576 40.6698ZM250.879 38.3351V39.3623V38.3117L259.053 37.5413L259.24 39.5958L251.111 40.3663L250.879 38.3351ZM267.368 37.051H275.612V39.1289H267.368V37.051ZM283.857 37.051C285.414 37.0503 286.969 37.1439 288.515 37.3312L292.055 37.7047L291.845 39.7592L288.259 39.3857C286.76 39.2023 285.251 39.1165 283.741 39.1289L283.857 37.051ZM300.346 38.5686L308.637 39.5024L308.218 41.5336L307.706 41.4169L300.137 40.6231L300.346 38.5686ZM316.649 41.1834L324.707 42.8643L324.288 44.8722L316.207 43.1912L316.649 41.1834Z" fill="#306a46" style="mix-blend-mode:screen"/>
<path d="M329.808 45.9462L330.437 43.9851L338.286 46.4832L337.68 48.4443L329.808 45.9462ZM345.529 50.9424L346.134 48.9813L351.91 50.8257L354.006 51.7362L353.214 53.6273L351.188 52.7634L345.529 50.9424ZM360.76 56.8958L361.575 55.0047L369.145 58.3666L368.33 60.2811L360.76 56.8958ZM375.549 63.8998L376.574 62.1255C377.785 62.8025 378.903 63.5029 380.231 64.1566L383.771 66.1177L382.769 67.9388L379.252 65.9777C377.995 65.3706 376.76 64.5535 375.549 63.8531V63.8998ZM389.966 71.9777L390.944 70.1567L392.108 70.9271L397.815 74.8961L396.65 76.6004L389.966 71.9777ZM403.404 81.3164L404.592 79.6121L408.085 82.0635C409.18 82.8806 410.205 83.7678 411.253 84.655L409.902 86.2192C408.9 85.3554 407.922 84.5149 406.874 83.7211L403.404 81.3164ZM416.167 91.5656L417.518 90.0013L423.876 95.301L422.525 96.8886L416.167 91.5656ZM428.278 102.609L429.745 101.161C431.678 103.146 433.564 105.13 435.428 107.208L433.914 108.585C432.051 106.507 430.164 104.5 428.278 102.562V102.609ZM439.34 114.749L440.901 113.418C442.694 115.519 444.441 117.644 446.164 119.815L444.557 121.099C442.857 118.904 441.11 116.733 439.34 114.702V114.749ZM449.495 127.566L451.148 126.329C452.802 128.523 454.409 130.788 455.993 133.053L454.292 134.243C452.802 131.979 451.195 129.737 449.495 127.566ZM458.811 141.06L460.534 139.94C461.792 141.901 463.003 143.862 464.191 145.847L464.843 147.014L463.073 148.064L462.421 146.897C461.373 144.936 460.161 142.998 458.927 141.06H458.811ZM466.939 155.302L468.779 154.368C470.036 156.703 471.271 159.294 472.435 161.792L470.572 162.679C469.524 160.205 468.313 157.73 467.055 155.302H466.939ZM473.926 170.174L475.812 169.357C476.907 171.901 477.955 174.47 478.956 177.038L477.047 177.785C476.185 175.24 475.114 172.765 474.066 170.174H473.926ZM479.911 185.489L481.844 184.812C482.776 187.427 483.638 190.042 484.476 192.657L482.52 193.287C481.821 190.695 480.959 188.081 480.051 185.489H479.911ZM484.872 201.178L486.852 200.618C487.224 201.902 487.574 203.209 487.923 204.493L488.738 208.719L486.712 209.116L485.897 204.96C485.734 203.746 485.361 202.462 485.012 201.178H484.872ZM488.435 217.124L490.462 216.75L490.904 219.085C491.059 219.957 491.222 220.797 491.393 221.606C491.626 222.727 491.836 223.941 492.022 224.922L489.996 225.272C489.809 224.198 489.6 223.101 489.367 222.027L488.878 219.459L488.435 217.124ZM490.764 233.467L492.814 233.256L493.582 241.428L491.533 241.614L490.764 233.467ZM492.022 249.809H494.072V258.074H492.022V249.809ZM492.022 266.315H494.072C494.079 267.875 493.993 269.435 493.815 270.985L493.443 274.557L491.393 274.323L491.766 270.728C491.941 269.263 492.034 267.79 492.045 266.315H492.022ZM490.508 282.658L492.558 282.868L491.626 291.179L489.623 290.759V290.269L490.508 282.658ZM487.946 298.837L489.973 299.281L488.272 307.359L486.269 306.938L487.946 298.837Z" fill="#306a46" style="mix-blend-mode:screen"/>
<path d="M224.841 469.128L232.899 470.809L232.48 472.84L224.421 471.135L224.841 469.128ZM240.957 472.49H241.47L249.039 473.283L248.829 475.338L240.561 474.427L240.957 472.49ZM257.26 474.241L260.847 474.637C262.393 474.813 263.948 474.899 265.505 474.894V476.949C263.948 476.957 262.393 476.872 260.847 476.692L257.283 476.318L257.26 474.241ZM273.563 474.918H281.808V476.972H273.586L273.563 474.918ZM289.866 474.451L298.017 473.68L298.227 475.735V474.707V475.735L290.052 476.505L289.866 474.451ZM306.169 472.84L309.406 472.209L311.945 471.719L314.274 471.275L314.67 473.307L312.341 473.75L309.825 474.241C308.731 474.474 307.636 474.684 306.518 474.871L306.169 472.84ZM322.309 469.688L326.478 468.871C327.689 468.567 328.97 468.217 330.251 467.844L330.809 469.828L326.92 470.902L322.705 471.719L322.309 469.688ZM338.122 465.486C340.708 464.668 343.293 463.781 345.878 462.871L346.577 464.808C343.968 465.742 341.337 466.606 338.728 467.447L338.122 465.486ZM353.587 459.976C356.126 458.995 358.641 457.945 361.156 456.871L361.971 458.762C359.433 459.859 356.894 460.91 354.332 461.913L353.587 459.976ZM368.655 453.485C371.124 452.318 373.57 451.151 376.015 449.867L376.947 451.688C374.478 452.972 372.009 454.186 369.517 455.353L368.655 453.485ZM383.235 445.968L384.399 445.314C386.333 444.147 388.289 442.979 390.199 441.695L391.317 443.423C389.384 444.684 387.427 445.898 385.424 447.088L384.283 447.765L383.235 445.968ZM397.023 437.119C399.352 435.555 401.494 433.944 403.683 432.31L404.918 433.968C402.589 435.625 400.469 437.236 398.187 438.824L397.023 437.119ZM410.181 427.29C412.324 425.586 414.42 423.835 416.493 422.061L417.844 423.625C415.748 425.423 413.628 427.174 411.462 428.901L410.181 427.29ZM422.641 416.621C424.691 414.753 426.671 412.886 428.604 410.971L430.048 412.465C428.091 414.38 426.088 416.271 424.039 418.139L422.641 416.621ZM434.286 405.134L439.62 398.831L441.203 400.185L435.847 406.465L434.286 405.134ZM444.976 392.551C445.838 391.547 446.677 390.543 447.445 389.516L449.774 386.037L451.451 387.228L449.122 390.73C448.284 391.827 447.422 392.854 446.537 393.905L444.976 392.551ZM454.572 379.266L459.23 372.566L461.023 373.546L460.278 374.714L456.342 380.55L454.572 379.266ZM463.212 365.258L465.169 361.733C465.821 360.472 466.52 359.235 467.218 358.044L469.012 359.048C468.336 360.262 467.637 361.383 466.985 362.714L465.006 366.262L463.212 365.258ZM470.898 350.783L474.159 343.196L476.045 344.013L472.784 351.601L470.898 350.783ZM477.442 335.725L478.304 333.694L480.098 328.02L482.077 328.651L480.237 334.417L479.329 336.519L477.442 335.725ZM482.59 320.153L485.082 312.261L487.038 312.892L484.569 320.76L482.59 320.153Z" fill="#306a46" style="mix-blend-mode:screen"/>
<path d="M81.631 389.399C81.7176 389.02 81.9418 388.687 82.2599 388.465C82.6097 388.255 83.0236 388.181 83.4244 388.255C83.8371 388.347 84.1969 388.599 84.4258 388.955L85.3341 390.379C85.5204 390.636 85.6602 390.893 85.8465 391.15C86.0328 391.406 86.4753 392.084 86.8247 392.644C87.0512 392.983 87.1366 393.397 87.0626 393.799C86.9887 394.2 86.7612 394.556 86.4287 394.792C86.097 395.02 85.6892 395.109 85.293 395.039C84.8967 394.969 84.5436 394.746 84.3094 394.418L83.2147 392.761C83.0786 392.522 82.9228 392.296 82.7489 392.084L81.8174 390.613C81.7023 390.435 81.6261 390.235 81.594 390.026C81.5619 389.816 81.5745 389.603 81.631 389.399V389.399ZM104.804 417.905C104.864 417.619 105.011 417.358 105.224 417.158C105.525 416.885 105.913 416.728 106.318 416.714C106.526 416.723 106.729 416.772 106.917 416.861C107.105 416.949 107.274 417.074 107.413 417.228C107.697 417.522 107.853 417.917 107.846 418.327C107.84 418.736 107.671 419.126 107.378 419.411C107.085 419.696 106.69 419.852 106.282 419.845C105.874 419.839 105.485 419.67 105.2 419.376C105.2 419.376 105.2 419.376 105.2 419.376C105.017 419.184 104.884 418.948 104.815 418.691C104.746 418.434 104.742 418.164 104.804 417.905V417.905ZM134.22 444.17C134.279 443.995 134.349 443.823 134.429 443.656C134.689 443.336 135.051 443.113 135.454 443.026C135.85 442.96 136.256 443.043 136.595 443.259L137.736 444.03L149.684 452.318C151.48 453.614 153.363 454.784 155.32 455.82H155.553L161.213 459.018L161.608 459.205L165.917 461.54C168.246 462.894 170.575 464.248 172.904 465.345C175.233 466.443 178.051 467.54 180.403 468.591L184.316 470.271L192.794 473.96C194.517 474.567 196.171 475.081 197.591 475.501L199.92 476.248C203.949 477.579 206.255 478.303 206.255 478.303C206.631 478.417 206.949 478.673 207.14 479.017C207.331 479.361 207.381 479.766 207.28 480.147V480.147C207.219 480.34 207.121 480.519 206.99 480.673C206.86 480.828 206.699 480.954 206.519 481.046C206.339 481.137 206.143 481.191 205.941 481.205C205.74 481.219 205.538 481.193 205.347 481.128L198.989 479.12L196.66 478.396C195.146 477.953 193.422 477.416 191.536 476.762L185.55 474.17L171.576 468.147C169.084 466.933 166.686 465.532 164.124 464.085C162.773 463.361 161.399 462.567 159.978 461.75L156.764 459.906L153.713 458.201C151.639 457.149 149.653 455.931 147.774 454.559L139.204 448.582L135.92 446.248C135.57 445.991 135.151 445.757 134.755 445.477C134.578 445.309 134.443 445.1 134.362 444.869C134.281 444.637 134.256 444.39 134.289 444.147L134.22 444.17Z" fill="#306a46" style="mix-blend-mode:screen"/>
<path d="M47.954 197.419C53.2501 177.203 61.1992 157.78 71.5932 139.66C71.6828 139.482 71.8109 139.327 71.9681 139.206C72.1253 139.085 72.3075 139.001 72.5015 138.959C72.6984 138.899 72.9056 138.881 73.11 138.905C73.3145 138.929 73.5117 138.995 73.6893 139.099C74.0407 139.304 74.2969 139.64 74.4016 140.034C74.5064 140.428 74.4512 140.847 74.2483 141.201C64.0074 159.057 56.1758 178.197 50.9584 198.12V198.447C49.724 203.116 48.6294 207.995 47.6978 212.875V213.178C47.6978 213.669 47.4649 214.135 47.395 214.626C47.3588 214.828 47.2827 215.02 47.1713 215.192C47.0599 215.364 46.9153 215.512 46.7462 215.627C46.577 215.742 46.3865 215.823 46.186 215.863C45.9855 215.904 45.7789 215.904 45.5784 215.863C45.3773 215.833 45.1852 215.759 45.0161 215.646C44.8469 215.533 44.7049 215.384 44.6003 215.209C44.373 214.866 44.2817 214.45 44.3441 214.042C44.3441 213.505 44.6003 212.945 44.6934 212.384C45.5319 207.388 46.5799 202.392 47.954 197.419ZM43.0631 221.069C43.1044 220.87 43.1845 220.681 43.2987 220.513C43.4129 220.344 43.5591 220.2 43.7289 220.089C44.0717 219.863 44.4899 219.783 44.8914 219.867C45.0902 219.908 45.2789 219.989 45.4468 220.103C45.6146 220.218 45.7584 220.364 45.8697 220.534C45.9811 220.705 46.058 220.895 46.0959 221.095C46.1338 221.295 46.1321 221.5 46.0908 221.7V221.7C46.0169 222.088 45.7967 222.434 45.4759 222.664C45.1551 222.894 44.7582 222.992 44.3674 222.937C43.9789 222.864 43.6311 222.649 43.3905 222.335C43.1499 222.02 43.0334 221.628 43.0631 221.233C43.0482 221.179 43.0482 221.123 43.0631 221.069V221.069ZM40.3848 253.288C40.4742 252.951 40.6748 252.654 40.954 252.447C41.2332 252.239 41.5744 252.132 41.9219 252.144C42.3396 252.154 42.7382 252.321 43.0398 252.611C43.3105 252.912 43.4599 253.303 43.4591 253.708C43.486 253.928 43.4661 254.151 43.4005 254.363C43.335 254.574 43.2254 254.769 43.079 254.935C42.9326 255.101 42.7527 255.234 42.5512 255.325C42.3497 255.416 42.1313 255.463 41.9103 255.463C41.6893 255.463 41.4708 255.416 41.2694 255.325C41.0679 255.234 40.888 255.101 40.7416 254.935C40.5951 254.769 40.4855 254.574 40.42 254.363C40.3545 254.151 40.3346 253.928 40.3615 253.708C40.3261 253.569 40.3342 253.422 40.3848 253.288V253.288ZM43.0864 292.697C43.1646 292.406 43.3288 292.145 43.5574 291.949C43.786 291.754 44.0684 291.632 44.3674 291.6C44.756 291.533 45.1555 291.616 45.4853 291.833C45.8127 292.087 46.0363 292.453 46.1141 292.86C46.3004 294.098 46.51 295.195 46.6964 296.502C49.8746 315.209 55.3505 333.449 62.9993 350.807L64.024 353.282C66.0735 357.484 67.9833 361.103 69.5204 364.021L71.0576 366.963C71.2108 367.328 71.2242 367.737 71.0953 368.112C70.9664 368.487 70.7042 368.801 70.3589 368.994C69.9901 369.176 69.5653 369.207 69.1742 369.08C68.7831 368.954 68.4563 368.68 68.2628 368.317C67.8203 367.43 67.3079 366.472 66.7722 365.445C65.2118 362.48 63.2554 358.815 61.1594 354.449C60.81 353.538 60.4374 352.674 60.0647 351.764C52.3355 334.262 46.8121 315.864 43.6221 296.993C43.3892 295.732 43.2029 294.658 43.0166 293.281C43.0097 293.084 43.0333 292.887 43.0864 292.697V292.697ZM93.9049 107.581C93.9902 107.367 94.0996 107.164 94.231 106.974C94.3619 106.82 94.5219 106.693 94.7017 106.601C94.8815 106.509 95.0777 106.453 95.279 106.437C95.6894 106.41 96.0955 106.534 96.4202 106.788C96.7218 107.057 96.9091 107.432 96.9437 107.836C96.9783 108.24 96.8577 108.641 96.6065 108.959C96.486 109.119 96.3316 109.25 96.1544 109.343C95.9772 109.436 95.7816 109.488 95.5818 109.496C95.3793 109.529 95.1721 109.516 94.9748 109.46C94.7776 109.403 94.5952 109.304 94.4406 109.169C94.2125 108.981 94.0414 108.732 93.9467 108.452C93.8521 108.171 93.8376 107.87 93.9049 107.581V107.581ZM116.217 84.2347C116.277 83.9365 116.432 83.6661 116.659 83.4643C116.954 83.1817 117.346 83.024 117.754 83.024C118.162 83.024 118.554 83.1817 118.848 83.4643C119.125 83.7624 119.279 84.1544 119.279 84.5616C119.279 84.9687 119.125 85.3608 118.848 85.6588C118.556 85.9469 118.163 86.1083 117.754 86.1083C117.344 86.1083 116.951 85.9469 116.659 85.6588C116.457 85.4784 116.309 85.2455 116.231 84.986C116.153 84.7264 116.148 84.4502 116.217 84.188V84.2347ZM121.597 79.5654C121.667 79.2526 121.829 78.9681 122.062 78.7482C131.614 70.5153 141.818 63.0744 152.572 56.4989C164.406 49.2107 176.879 43.0214 189.836 38.0083C190.024 37.9281 190.226 37.8867 190.43 37.8867C190.634 37.8867 190.836 37.9281 191.024 38.0083C191.205 38.0876 191.369 38.2029 191.505 38.3473C191.642 38.4918 191.747 38.6624 191.816 38.8488C191.963 39.2333 191.955 39.6601 191.794 40.0391C191.634 40.4181 191.332 40.7196 190.954 40.88C166.548 50.3225 143.934 63.8801 124.089 80.9662C123.937 81.0996 123.759 81.1997 123.567 81.26C123.374 81.3203 123.171 81.3395 122.971 81.3164C122.768 81.3087 122.569 81.2566 122.387 81.1639C122.206 81.0712 122.048 80.9399 121.923 80.7794C121.751 80.5946 121.631 80.3682 121.574 80.1225C121.517 79.8768 121.524 79.6203 121.597 79.3786V79.5654ZM71.5466 373.733C71.6048 373.524 71.705 373.329 71.8412 373.161C71.9774 372.992 72.1467 372.853 72.3385 372.753C72.5188 372.66 72.7156 372.604 72.9176 372.588C73.1196 372.572 73.3227 372.596 73.5153 372.659C73.708 372.722 73.8863 372.822 74.0401 372.955C74.1938 373.087 74.32 373.248 74.4113 373.43C74.5856 373.797 74.6127 374.217 74.487 374.604C74.3613 374.99 74.0925 375.314 73.7359 375.507C73.3768 375.674 72.9691 375.701 72.591 375.585C72.2128 375.469 71.8907 375.217 71.6864 374.877C71.6864 374.877 71.6864 374.877 71.6864 374.877C71.5823 374.699 71.5162 374.501 71.4922 374.296C71.4681 374.092 71.4867 373.884 71.5466 373.686V373.733ZM226.82 27.8059C226.888 27.5297 227.034 27.2791 227.24 27.0843C227.447 26.8896 227.706 26.7591 227.985 26.7086C228.282 26.6456 228.592 26.6726 228.874 26.7862C229.157 26.8998 229.399 27.0948 229.571 27.3465C229.742 27.5982 229.836 27.8954 229.839 28.2003C229.842 28.5052 229.755 28.8043 229.588 29.0595C229.422 29.3148 229.184 29.5147 228.904 29.6341C228.624 29.7535 228.315 29.787 228.016 29.7302C227.717 29.6735 227.442 29.5291 227.225 29.3154C227.008 29.1017 226.859 28.8282 226.797 28.5296C226.735 28.2911 226.743 28.0399 226.82 27.8059V27.8059ZM258.774 23.4867C258.851 23.239 258.987 23.0137 259.17 22.83C259.353 22.6463 259.578 22.5096 259.825 22.4317C260.072 22.3537 260.334 22.3368 260.589 22.3823C260.844 22.4278 261.084 22.5343 261.289 22.6929C261.518 22.8947 261.683 23.1591 261.763 23.4537C261.844 23.7482 261.836 24.0599 261.742 24.3503C261.648 24.6408 261.471 24.8972 261.234 25.0881C260.996 25.279 260.707 25.3959 260.404 25.4245C260.404 25.4245 260.404 25.4245 260.404 25.4245C260.015 25.4266 259.637 25.2947 259.333 25.051C259.018 24.7765 258.818 24.3929 258.774 23.977C258.753 23.8143 258.753 23.6495 258.774 23.4867V23.4867ZM265.924 23.1599C266.017 22.8251 266.219 22.531 266.497 22.3238C266.775 22.1167 267.114 22.0083 267.461 22.0159H281.295C284.694 21.9513 288.094 22.1073 291.473 22.4828L308.079 24.2338C309.647 24.3418 311.205 24.576 312.737 24.9342L313.365 25.051C313.854 25.191 314.111 25.191 314.227 25.2377C314.625 25.3361 314.973 25.5769 315.205 25.9148C315.316 26.0853 315.391 26.2774 315.423 26.4785C315.455 26.6797 315.444 26.8853 315.392 27.0821C315.353 27.2788 315.275 27.4658 315.164 27.6323C315.052 27.7988 314.909 27.9415 314.743 28.0523C314.576 28.163 314.389 28.2395 314.192 28.2773C313.996 28.3152 313.794 28.3136 313.598 28.2728L312.084 28.016C310.728 27.6629 309.339 27.4516 307.939 27.3856C304.795 27.0588 300.439 26.6152 294.966 26.0082L291.124 25.6813C287.796 25.2522 284.439 25.096 281.086 25.2144H276.917H267.461C267.259 25.2176 267.059 25.1798 266.872 25.1032C266.686 25.0267 266.517 24.9129 266.375 24.7688C266.233 24.6248 266.123 24.4534 266.049 24.2651C265.975 24.0769 265.941 23.8756 265.947 23.6735C265.895 23.5072 265.887 23.3302 265.924 23.1599V23.1599Z" fill="#306a46" style="mix-blend-mode:screen"/>
<path d="M341.872 33.6424C341.93 33.4473 342.027 33.2659 342.156 33.1091C342.286 32.9522 342.446 32.8231 342.626 32.7294C342.806 32.6357 343.004 32.5794 343.206 32.5638C343.409 32.5482 343.612 32.5736 343.805 32.6385V32.6385L344.387 32.8019L350.163 34.6697L352.492 35.3701C354.052 35.8136 355.729 36.3506 357.593 37.0277L366.722 40.9732L372.335 43.4246L377.552 45.7593C380.044 46.95 382.489 48.3741 385.051 49.8216C386.379 50.5454 387.753 51.3392 389.15 52.1563L395.206 55.5416L395.462 55.6816C397.525 56.7612 399.51 57.9861 401.401 59.3471L413.209 67.5651C413.611 67.8081 414 68.0731 414.373 68.3589C414.7 68.5982 414.925 68.9523 415.003 69.3505C415.08 69.7487 415.005 70.1616 414.792 70.5068C414.55 70.8361 414.192 71.0621 413.791 71.1399C413.39 71.2177 412.974 71.1418 412.626 70.927C412.277 70.6468 411.951 70.4367 411.555 70.1566L410.903 69.7363C407.107 67.1215 403.334 64.46 399.561 61.8452C397.732 60.5173 395.809 59.3235 393.808 58.2731H393.599L390.385 56.4521L387.59 54.9112L383.281 52.5765C380.789 51.1991 378.507 49.8683 376.294 48.7477L364.929 43.8449L356.335 39.8526C354.635 39.2456 352.981 38.7086 351.514 38.2884L349.185 37.5413C345.179 36.2339 342.873 35.5568 342.85 35.5335C342.482 35.3959 342.178 35.1262 341.998 34.7768C341.817 34.4274 341.772 34.0231 341.872 33.6424V33.6424ZM441.483 95.3009C441.553 95.0376 441.69 94.7966 441.879 94.6005C442.02 94.4546 442.191 94.3398 442.379 94.2635C442.568 94.1871 442.77 94.1508 442.973 94.1569C443.182 94.149 443.39 94.1866 443.583 94.2672C443.776 94.3478 443.95 94.4695 444.091 94.6238C444.378 94.9165 444.539 95.3106 444.539 95.7211C444.539 96.1317 444.378 96.5258 444.091 96.8184C443.796 97.1002 443.404 97.2587 442.996 97.262C442.797 97.2616 442.6 97.2175 442.418 97.1328C442.237 97.0481 442.077 96.9249 441.948 96.7717C441.742 96.5939 441.59 96.3622 441.508 96.1025C441.425 95.8428 441.417 95.5653 441.483 95.3009V95.3009ZM462.257 120.048C462.358 119.688 462.58 119.375 462.886 119.161C463.224 118.934 463.638 118.848 464.038 118.923C464.438 118.997 464.794 119.225 465.029 119.558C465.448 120.118 465.774 120.655 466.077 121.099C466.227 121.364 466.39 121.621 466.566 121.869L467.497 123.34C467.715 123.69 467.79 124.11 467.708 124.514C467.625 124.918 467.392 125.275 467.055 125.511C466.704 125.724 466.284 125.791 465.885 125.7C465.485 125.608 465.137 125.365 464.912 125.021L463.981 123.574C463.841 123.34 463.655 123.06 463.468 122.803C463.282 122.546 462.863 121.846 462.49 121.309C462.36 121.129 462.272 120.923 462.232 120.705C462.192 120.487 462.2 120.263 462.257 120.048V120.048Z" fill="#306a46" style="mix-blend-mode:screen"/>
<path d="M234.017 486.801C234.1 486.408 234.336 486.065 234.673 485.846C235.009 485.627 235.418 485.551 235.81 485.634L237.394 485.961C238.746 486.297 240.125 486.508 241.516 486.591L258.238 488.319C261.498 488.717 264.782 488.889 268.066 488.832H269.953H281.901C282.1 488.825 282.299 488.861 282.484 488.937C282.669 489.014 282.835 489.129 282.972 489.276C283.198 489.49 283.355 489.768 283.42 490.073C283.486 490.378 283.457 490.696 283.339 490.984C283.22 491.273 283.017 491.518 282.756 491.689C282.495 491.859 282.188 491.945 281.877 491.937H280.992C277.08 491.937 273.377 491.937 269.93 491.937H267.903C264.543 492.038 261.179 491.881 257.842 491.47L241.236 489.719C239.669 489.614 238.112 489.387 236.579 489.042L235.903 488.902L235.135 488.739C234.936 488.698 234.747 488.617 234.58 488.501C234.413 488.385 234.271 488.236 234.162 488.064C234.053 487.892 233.98 487.7 233.947 487.499C233.914 487.298 233.922 487.092 233.97 486.894L234.017 486.801ZM287.583 489.673C287.661 489.367 287.834 489.094 288.077 488.892C288.32 488.691 288.62 488.572 288.934 488.552C289.138 488.521 289.347 488.536 289.545 488.596C289.742 488.657 289.924 488.762 290.075 488.902C290.235 489.033 290.365 489.197 290.457 489.382C290.55 489.567 290.602 489.769 290.611 489.976C290.637 490.378 290.505 490.773 290.244 491.078C289.983 491.384 289.613 491.575 289.214 491.61C288.804 491.643 288.398 491.516 288.081 491.254C287.764 490.993 287.56 490.619 287.513 490.21C287.506 490.029 287.522 489.849 287.56 489.673H287.583ZM319.537 485.33C319.608 485.101 319.731 484.89 319.896 484.715C320.06 484.54 320.262 484.404 320.486 484.319C320.711 484.233 320.951 484.2 321.19 484.222C321.429 484.243 321.66 484.319 321.866 484.443C322.033 484.554 322.175 484.698 322.283 484.867C322.391 485.036 322.464 485.225 322.495 485.424C322.545 485.717 322.51 486.019 322.394 486.294C322.279 486.568 322.087 486.804 321.843 486.973C321.598 487.143 321.31 487.238 321.013 487.249C320.716 487.26 320.422 487.186 320.166 487.035C319.999 486.924 319.857 486.779 319.749 486.61C319.64 486.442 319.568 486.252 319.537 486.054C319.483 485.816 319.475 485.571 319.514 485.33H319.537ZM357.406 474.264C357.469 474.027 357.589 473.81 357.756 473.631C357.922 473.452 358.13 473.316 358.361 473.237C371.152 468.268 383.468 462.15 395.159 454.956C405.781 448.484 415.846 441.136 425.25 432.987C425.395 432.816 425.576 432.679 425.78 432.584C425.983 432.49 426.205 432.44 426.429 432.439C426.653 432.438 426.875 432.486 427.079 432.579C427.284 432.671 427.466 432.807 427.613 432.977C427.76 433.147 427.869 433.346 427.932 433.562C427.996 433.777 428.012 434.004 427.98 434.227C427.948 434.449 427.869 434.662 427.747 434.851C427.626 435.04 427.465 435.201 427.276 435.322C407.126 452.649 384.185 466.417 359.433 476.038C359.247 476.117 359.047 476.157 358.845 476.156C358.643 476.155 358.443 476.112 358.258 476.032C358.073 475.951 357.906 475.833 357.768 475.686C357.629 475.539 357.522 475.365 357.453 475.174C357.325 474.888 357.3 474.566 357.383 474.264H357.406ZM474.811 139.496C474.86 139.284 474.955 139.085 475.087 138.912C475.22 138.739 475.387 138.596 475.579 138.492C475.965 138.364 476.381 138.364 476.767 138.492C477.151 138.636 477.467 138.919 477.652 139.286V139.286C477.809 139.654 477.822 140.067 477.688 140.443C477.554 140.82 477.283 141.132 476.93 141.317C476.752 141.414 476.556 141.474 476.354 141.493C476.152 141.512 475.949 141.491 475.756 141.43C475.562 141.369 475.383 141.27 475.229 141.138C475.074 141.007 474.948 140.845 474.857 140.664C474.699 140.294 474.682 139.878 474.811 139.496V139.496ZM478.118 145.87C478.231 145.447 478.508 145.086 478.886 144.866C479.254 144.678 479.681 144.644 480.074 144.771C480.467 144.898 480.793 145.175 480.982 145.543C481.448 146.5 482.007 147.481 482.589 148.625C484.126 151.543 486.036 155.162 488.086 159.411C488.458 160.251 488.784 161.115 489.134 162.026C496.901 179.545 502.456 197.968 505.67 216.867C505.856 218.058 506.042 219.202 506.229 220.556C506.264 220.945 506.151 221.332 505.912 221.64C505.674 221.949 505.327 222.155 504.943 222.217C504.559 222.279 504.165 222.193 503.842 221.976C503.518 221.758 503.289 221.426 503.201 221.046C503.015 219.785 502.828 218.711 502.595 217.381C499.447 198.69 493.97 180.469 486.292 163.146L485.291 160.648C483.241 156.399 481.308 152.734 479.771 149.816L478.257 147.084C478.056 146.713 478.006 146.277 478.118 145.87V145.87ZM430.164 428.995C430.233 428.707 430.387 428.446 430.606 428.248C430.893 427.968 431.278 427.812 431.678 427.812C432.078 427.812 432.462 427.968 432.749 428.248C433.022 428.552 433.174 428.947 433.174 429.357C433.174 429.766 433.022 430.161 432.749 430.466C432.457 430.754 432.064 430.915 431.654 430.915C431.245 430.915 430.852 430.754 430.56 430.466C430.372 430.276 430.237 430.04 430.168 429.783C430.098 429.525 430.097 429.253 430.164 428.995V428.995ZM452.406 405.648C452.468 405.429 452.571 405.223 452.708 405.041C452.982 404.726 453.365 404.525 453.78 404.481C453.978 404.46 454.179 404.482 454.368 404.546C454.557 404.611 454.73 404.716 454.874 404.854C455.034 404.983 455.166 405.143 455.263 405.324C455.361 405.504 455.421 405.703 455.44 405.907C455.46 406.112 455.438 406.318 455.377 406.514C455.316 406.71 455.216 406.892 455.084 407.049V407.049C454.82 407.341 454.452 407.518 454.059 407.539C453.864 407.561 453.667 407.543 453.479 407.487C453.291 407.431 453.116 407.337 452.965 407.212C452.719 407.033 452.533 406.783 452.433 406.495C452.333 406.207 452.324 405.895 452.406 405.601V405.648ZM474.927 373.196C474.963 373.06 475.01 372.928 475.067 372.799C487.853 350.574 496.85 326.366 501.687 301.172C501.803 300.612 501.92 300.005 502.013 299.421C502.124 299.052 502.366 298.737 502.693 298.536C503.021 298.336 503.411 298.263 503.789 298.332C504.166 298.402 504.505 298.608 504.741 298.912C504.976 299.217 505.091 299.597 505.064 299.981C505.064 300.285 504.948 300.588 504.878 300.868C504.808 301.148 504.761 301.475 504.738 301.756C499.814 327.301 490.701 351.852 477.768 374.41C477.667 374.588 477.532 374.743 477.37 374.868C477.208 374.992 477.023 375.083 476.826 375.136C476.629 375.188 476.423 375.2 476.221 375.172C476.019 375.143 475.824 375.075 475.649 374.971C475.33 374.805 475.081 374.53 474.949 374.195C474.816 373.861 474.808 373.489 474.927 373.15V373.196ZM505.996 259.965C506.066 259.623 506.254 259.317 506.526 259.1C506.799 258.882 507.138 258.767 507.486 258.774C507.69 258.777 507.891 258.821 508.078 258.903C508.265 258.984 508.434 259.103 508.575 259.25C508.716 259.398 508.826 259.572 508.899 259.763C508.972 259.954 509.006 260.158 509 260.362C509 260.565 508.96 260.766 508.881 260.954C508.802 261.141 508.686 261.31 508.54 261.452C508.395 261.593 508.222 261.704 508.033 261.778C507.844 261.851 507.642 261.886 507.44 261.879C507.036 261.873 506.651 261.708 506.368 261.42C506.084 261.132 505.926 260.743 505.926 260.339C505.917 260.195 505.941 260.051 505.996 259.918V259.965ZM503.271 292.207C503.343 291.916 503.498 291.652 503.718 291.449C503.937 291.245 504.211 291.11 504.506 291.059C504.801 291.009 505.104 291.047 505.378 291.167C505.652 291.287 505.885 291.484 506.049 291.735C506.212 291.986 506.3 292.279 506.3 292.579C506.3 292.879 506.212 293.172 506.048 293.423C505.885 293.674 505.651 293.871 505.377 293.991C505.103 294.111 504.8 294.148 504.505 294.098C504.296 294.062 504.097 293.984 503.92 293.868C503.743 293.751 503.592 293.6 503.476 293.422C503.36 293.245 503.282 293.045 503.247 292.836C503.212 292.627 503.22 292.413 503.271 292.207V292.207Z" fill="#306a46" style="mix-blend-mode:screen"/>
</g>
<defs>
<clipPath id="clip0_235_213">
<rect width="509" height="526" fill="white"/>
</clipPath>
</defs>
</svg>