<svg xmlns="http://www.w3.org/2000/svg" width="38" height="35" viewBox="0 0 38 35" fill="none">
<g clip-path="url(#clip0_798_12)">
<path d="M5.00977 2.64229C4.72774 2.70908 4.20821 2.89463 3.85938 3.05791C3.02071 3.45869 2.10039 4.37158 1.68477 5.19541C1.11328 6.3458 1.15039 5.69268 1.15039 15.3634C1.15039 25.0341 1.11328 24.381 1.68477 25.5313C2.10039 26.3552 3.02071 27.2681 3.85938 27.6688C4.44571 27.9509 5.38086 28.2032 5.81875 28.2032H6.01172L6.02656 31.8028L6.04883 35.395L11.207 31.8028L16.3652 28.2106L24.3512 28.2032C29.7469 28.2032 32.4781 28.1735 32.775 28.1216C34.5266 27.8024 35.9441 26.5778 36.575 24.8485L36.7754 24.3067V15.3634V6.42002L36.575 5.87822C36.0332 4.379 34.9719 3.3251 33.4801 2.79072L32.8418 2.56064L19.1856 2.5458C7.34766 2.53838 5.4625 2.5458 5.00977 2.64229ZM32.8938 4.88369C33.4949 5.12861 34.0813 5.68525 34.3781 6.29385L34.623 6.79111L34.6453 15.1036C34.6602 21.286 34.6453 23.52 34.5785 23.8243C34.3484 24.9228 33.4801 25.7688 32.3668 25.9767C32.1145 26.0212 29.0195 26.0509 23.8094 26.0509H15.6527L11.927 28.6485L8.20117 31.2388L8.17891 28.6485L8.16406 26.0509H7.10274C5.41055 26.0509 4.80938 25.8728 4.11914 25.1825C3.68867 24.7595 3.42891 24.2177 3.33242 23.5794C3.25078 22.9782 3.25078 7.74854 3.33242 7.14736C3.51055 5.95986 4.30469 5.06924 5.45508 4.77979C5.74453 4.70557 8.72071 4.69072 19.1484 4.69814L32.4707 4.71299L32.8938 4.88369Z" fill="white"/>
<path d="M10.6875 10.9473V12.0234H19H27.3125V10.9473V9.87109H19H10.6875V10.9473Z" fill="white"/>
<path d="M10.6875 15.4004V16.4766H19H27.3125V15.4004V14.3242H19H10.6875V15.4004Z" fill="white"/>
<path d="M10.6875 19.8535V20.9297H19H27.3125V19.8535V18.7773H19H10.6875V19.8535Z" fill="white"/>
</g>
<defs>
<clipPath id="clip0_798_12">
<rect width="38" height="35" fill="#0d0131"/>
</clipPath>
</defs>
</svg>