<svg width="64" height="64" viewBox="0 0 64 64" fill="#4ca35a" xmlns="http://www.w3.org/2000/svg">
<path d="M20.3085 2.00104C20.0826 2.22698 20.0575 2.41526 20.0575 4.23531V6.20599L15.2626 7.69969C7.48032 10.1222 8.00751 9.90885 8.00751 10.7624C8.00751 11.0009 10.7188 19.8501 14.0325 30.4441L20.0575 49.6864V55.5984C20.0575 61.3347 20.0701 61.5105 20.3085 61.749C20.5596 62 20.7228 62 38.1325 62C55.5422 62 55.7054 62 55.9565 61.749C56.2075 61.4979 56.2075 61.3347 56.2075 48.6948C56.2075 36.5193 56.1949 35.854 55.969 35.2264C55.8435 34.8749 54.036 31.3855 51.9523 27.4943L48.1742 20.4024V11.3272C48.1742 2.41526 48.1742 2.25208 47.9231 2.00104C47.6721 1.75 47.5089 1.75 34.1158 1.75C20.7228 1.75 20.5596 1.75 20.3085 2.00104ZM46.1658 23.8417V43.925H45.488C44.8479 43.925 44.7726 43.8873 44.4839 43.5108L44.1575 43.084V26.1889C44.1575 6.44448 44.396 8.77917 42.4002 8.77917H41.145V7.52396C41.145 5.57838 41.8856 5.76667 34.1158 5.76667C26.3461 5.76667 27.0867 5.57838 27.0867 7.52396V8.77917H25.8315C24.7394 8.77917 24.5386 8.81682 24.3252 9.03021C24.0742 9.28125 24.0742 9.44443 24.0742 31.875C24.0742 54.3056 24.0742 54.4687 24.3252 54.7198C24.5386 54.9332 24.7394 54.9708 25.8315 54.9708H27.0867V56.226C27.0867 58.1591 26.434 57.9833 33.6138 57.9833H39.6388L39.8396 58.3097C39.9651 58.4854 40.417 58.9373 40.8563 59.3139L41.6596 59.9917H31.869H22.0658V31.875V3.75833H34.1158H46.1658V23.8417ZM39.1367 9.03021C39.1367 10.1222 39.1743 10.3231 39.3877 10.5365C39.6011 10.7498 39.8019 10.7875 40.894 10.7875H42.1492V25.4734C42.1492 33.5444 42.1241 40.1594 42.099 40.1594C42.0739 40.1594 41.3333 39.1678 40.4546 37.9628L38.8605 35.7536L39.2371 35.1636C39.8647 34.1971 40.1408 33.1679 40.1408 31.875C40.1408 30.0549 39.5509 28.6366 38.2831 27.4567C37.0656 26.3144 35.848 25.85 34.1033 25.85C32.2832 25.85 30.8774 26.4399 29.6975 27.7077C28.5553 28.9253 28.0908 30.1428 28.0908 31.875C28.0908 33.6448 28.5678 34.8373 29.7603 36.1051L30.3753 36.7578L30.1745 37.3603C29.7352 38.741 29.8105 40.0966 30.4004 41.2891C30.5636 41.6029 32.1326 44.0003 33.9025 46.6111C36.7392 50.8035 37.1283 51.4311 37.1283 51.8579C37.1283 52.6236 37.4923 54.2052 37.8815 55.134L38.2329 55.975H33.664H29.095V54.7198C29.095 53.0127 29.0448 52.9625 27.3377 52.9625H26.0825V31.875V10.7875H27.3377C29.0448 10.7875 29.095 10.7373 29.095 9.03021V7.775H34.1158H39.1367V9.03021ZM20.0575 9.46953V10.3984L18.2123 10.9758C17.045 11.3398 16.2793 11.6536 16.1413 11.8168C15.84 12.1557 15.8526 12.8335 16.1664 13.7498C16.3044 14.1515 16.4048 14.5406 16.3672 14.6159C16.3421 14.7037 15.8777 14.892 15.3505 15.0427C14.2459 15.3816 13.907 15.6452 13.907 16.1974C13.907 16.4234 15.2877 21.0174 16.9822 26.4274L20.0575 36.2557L20.0324 39.2556L19.9947 42.2681L15.1873 26.8918C12.5388 18.4443 10.3924 11.503 10.4175 11.4904C10.4928 11.4277 19.7437 8.54068 19.9069 8.54068C20.0073 8.52812 20.0575 8.79172 20.0575 9.46953ZM20.0575 20.7915L20.045 28.9253L18.1747 22.9756C17.1454 19.6995 16.317 17.0008 16.3295 17.0008C16.3421 16.9882 16.8567 16.8251 17.4592 16.6368C18.4508 16.3355 18.5764 16.2602 18.7646 15.8711C18.9529 15.4694 18.9529 15.4067 18.6266 14.3648C18.4383 13.7623 18.3002 13.2603 18.3253 13.2352C18.3755 13.1975 19.8441 12.6954 19.9696 12.6829C20.0198 12.6703 20.0575 16.323 20.0575 20.7915ZM51.0988 30.5068C53.1448 34.3478 53.9858 36.0297 54.0736 36.5067C54.149 36.9335 54.1992 41.4146 54.1992 48.5818V59.9917H51.3498C49.7683 59.9917 47.9984 59.9415 47.4085 59.8787C45.35 59.6528 43.5676 58.8494 42.0739 57.4436C40.3668 55.8495 39.4756 53.9918 39.2747 51.6445L39.1743 50.5148L35.6974 45.381C33.6263 42.3058 32.1703 40.0339 32.095 39.7326C31.9067 39.0422 32.1201 38.0004 32.5845 37.3352C32.7853 37.0465 33.1995 36.695 33.6138 36.4816C34.2163 36.1678 34.4045 36.1302 35.1451 36.1678C36.5007 36.2431 36.6263 36.3686 40.2287 41.3518C41.9734 43.7493 43.4671 45.7702 43.555 45.8329C43.6429 45.8831 44.6094 45.9333 45.7014 45.9333C47.5089 45.9333 47.6972 45.9082 47.9231 45.6823C48.1742 45.4312 48.1742 45.2681 48.1742 35.239C48.1742 29.6407 48.1993 25.0843 48.2118 25.1094C48.2369 25.1345 49.5423 27.5571 51.0988 30.5068ZM35.8355 28.373C36.7267 28.7997 37.2915 29.3897 37.7308 30.3436C37.9944 30.9336 38.0321 31.147 37.9819 32.0507C37.9442 32.7536 37.8438 33.2306 37.6555 33.5821C37.2539 34.3603 37.1534 34.398 36.3878 34.172C35.9233 34.034 35.3836 33.9963 34.6681 34.034C33.7769 34.0842 33.4882 34.1595 32.6723 34.5611L31.7058 35.0381L31.3544 34.6992C30.6766 34.0465 30.3126 33.1679 30.2498 32.0507C30.1996 31.1595 30.2372 30.9336 30.5008 30.3436C30.9151 29.4524 31.4422 28.8625 32.233 28.4357C33.4129 27.7956 34.5677 27.7705 35.8355 28.373Z" fill="#4ca35a"/>
</svg>
