<svg width="64" height="64" viewBox="0 0 64 64" fill="#4ca35a" xmlns="http://www.w3.org/2000/svg">
<path d="M33.8114 2.01943C33.7186 2.04288 33.2434 2.11324 32.7681 2.19532C31.0062 2.47676 26.81 3.70803 25.8827 4.21226C25.732 4.29435 25.164 4.34126 24.4106 4.3178C21.1301 4.24744 18.9741 5.70152 18.2786 8.46895C18.0584 9.32498 18.0468 9.77058 18.0468 14.7074V20.0195L17.7106 20.4885C17.247 21.1335 17.0847 21.8488 17.1426 22.9159C17.2006 23.9713 17.4672 24.5928 18.1627 25.2963C18.9046 26.0468 19.4494 26.2696 20.6665 26.3283L21.7329 26.3752L21.8604 27.2195C22.127 28.8377 22.9732 30.6905 24.0396 32.0156L24.5381 32.6253V34.7947V36.9758L21.5474 38.6996L18.5684 40.4234L15.1489 41.2325C13.271 41.6781 11.4511 42.1589 11.115 42.2879C9.0169 43.1322 7.16225 45.1257 6.38561 47.3537L6.04945 48.3387L6.01468 54.929C5.9799 61.4254 5.99149 61.5309 6.22332 61.7655C6.45516 62 6.47834 62 31.9567 62C57.4351 62 57.4583 62 57.6901 61.7655C57.9219 61.5309 57.9335 61.4254 57.8988 54.929L57.864 48.3387L57.5278 47.3537C56.7164 45.0202 54.7574 42.9915 52.5318 42.1941C52.1493 42.0534 50.3758 41.5961 48.5907 41.1856L45.345 40.4234L42.366 38.6996L39.3754 36.9758V34.7947V32.6136L39.7579 32.1446C40.975 30.6905 41.8676 28.7322 42.0994 26.9615L42.1805 26.3517H43.0383C44.1975 26.3517 45.0089 26.0351 45.7507 25.2963C47.1417 23.8774 47.1765 21.3563 45.8087 19.9726L45.2987 19.4566L45.4494 18.5419C45.7392 16.8651 45.9014 14.4025 45.8203 12.8194C45.6232 8.93801 44.7075 6.42856 42.7833 4.47025C42.0067 3.67285 41.6705 3.4266 40.7548 2.98099C39.1088 2.1836 38.4944 2.05461 36.0717 2.0077C34.9242 1.99597 33.9041 1.99597 33.8114 2.01943ZM38.3089 4.20054C39.4333 4.48197 39.9897 4.75168 40.8243 5.39663C42.9572 7.0266 44.012 10.2162 43.8613 14.5081C43.8265 15.5048 43.7106 16.8885 43.5947 17.5804L43.3977 18.8468H42.7833H42.1573V16.267C42.1573 13.8396 42.1458 13.6755 41.9255 13.4527C41.7748 13.3002 41.543 13.2181 41.2532 13.2181C41.0098 13.2181 39.074 13.5934 36.9527 14.039C34.8314 14.4963 32.5131 14.9302 31.8176 15.0006C29.4182 15.2351 26.4391 14.7309 24.0744 13.6989C22.8689 13.1595 22.3357 13.1009 21.9879 13.4527C21.7677 13.6755 21.7561 13.8396 21.7561 16.267V18.8468H20.8288H19.9014V15.0592C19.913 11.3419 20.0058 9.58296 20.2492 8.73866C20.4926 7.89436 21.0722 7.21422 21.93 6.76862L22.7182 6.3582L24.3526 6.34647H25.987L27.2389 5.85396C31.7249 4.08327 35.5849 3.50868 38.3089 4.20054ZM40.3027 20.2188C40.2911 25.6247 40.2215 26.727 39.7811 28.0521C39.1899 29.8579 37.7989 31.6169 36.1877 32.5902C34.1823 33.8214 31.5974 34.0912 29.3486 33.3289C26.2305 32.2736 24.0396 29.4592 23.7151 26.0586C23.6571 25.484 23.6108 22.9159 23.6108 20.3595V15.7276L24.7467 16.1028C27.7258 17.1113 30.7744 17.3107 33.9041 16.7243C34.588 16.6071 36.1877 16.267 37.4627 15.9856C38.7378 15.7041 39.897 15.4696 40.0477 15.4579L40.3027 15.4462V20.2188ZM21.7561 22.611V24.5107L21.0374 24.4286C19.7971 24.2996 19.09 23.6429 19.09 22.611C19.09 21.4618 19.913 20.77 21.3272 20.7348L21.7561 20.723V22.611ZM43.9425 21.0514C44.4989 21.3797 44.8234 21.9543 44.8234 22.5993C44.8234 23.6429 44.1163 24.2996 42.876 24.4286L42.1573 24.5107V22.5993V20.6879L42.876 20.77C43.2586 20.8051 43.7454 20.9341 43.9425 21.0514ZM27.2621 34.6306C27.6446 34.8416 28.3981 35.1465 28.9429 35.3341C29.8702 35.639 30.0557 35.6625 31.8988 35.6742C34.333 35.6742 34.9705 35.51 37.4396 34.2319C37.4859 34.2084 37.5207 34.8534 37.5207 35.6625V37.14L34.7851 40.3061C33.2782 42.0534 32.0031 43.4723 31.9567 43.4723C31.9104 43.4723 30.6353 42.0534 29.1284 40.3061L26.3927 37.14V35.6625C26.3927 34.8534 26.4275 34.2084 26.4855 34.2319C26.5318 34.2553 26.8796 34.4312 27.2621 34.6306ZM27.8185 41.854C29.2095 43.4723 30.3107 44.8325 30.2528 44.8912C30.1252 45.0202 25.6741 47.5882 25.6393 47.5531C25.6277 47.5296 24.5149 46.2397 23.1703 44.6801C21.8256 43.1205 20.7013 41.7837 20.6897 41.7133C20.6665 41.6078 25.0133 38.9224 25.2336 38.9224C25.2684 38.9107 26.4275 40.2358 27.8185 41.854ZM40.8939 40.2006C42.1342 40.9159 43.189 41.5374 43.2354 41.5843C43.3165 41.6664 41.0446 44.3752 38.6103 47.1309L38.2278 47.5648L35.9906 46.2749C34.7619 45.5596 33.7071 44.9381 33.6607 44.8912C33.6027 44.8325 34.7039 43.4723 36.0949 41.854C37.4859 40.2358 38.6335 38.9107 38.6335 38.9107C38.6451 38.899 39.6651 39.4853 40.8939 40.2006ZM21.6865 46.0521C23.3326 47.9518 24.7583 49.5817 24.8626 49.6521C25.2104 49.9335 25.8132 49.828 26.6941 49.3238L27.5519 48.8547L27.6562 49.1244C27.7142 49.2768 28.0388 50.1094 28.3865 50.9889L29.024 52.5837L27.378 56.3244L25.732 60.0651L20.9679 60.1003L16.1921 60.1238V57.544C16.1921 55.1166 16.1805 54.9524 15.9603 54.7296C15.8096 54.5772 15.5778 54.4951 15.2648 54.4951C14.9518 54.4951 14.72 54.5772 14.5693 54.7296C14.349 54.9524 14.3375 55.1166 14.3375 57.544V60.1238H11.0802H7.82297L7.86933 54.6358C7.92729 48.5967 7.93888 48.4912 8.69234 47.0606C8.90099 46.6619 9.41102 45.9935 9.82832 45.5713C10.9759 44.3987 11.7178 44.082 15.2648 43.2495C16.8876 42.8625 18.325 42.5576 18.4641 42.5693C18.6264 42.5811 19.7276 43.7654 21.6865 46.0521ZM48.6023 43.2377C52.2073 44.082 52.9376 44.3987 54.0851 45.5713C54.5024 45.9935 55.0125 46.6619 55.2211 47.0606C55.9746 48.4912 55.9861 48.5967 56.0441 54.6358L56.0905 60.1238H52.8332H49.576V57.544C49.576 55.1166 49.5644 54.9524 49.3442 54.7296C49.0312 54.413 48.2661 54.413 47.9532 54.7296C47.7329 54.9524 47.7213 55.1166 47.7213 57.544V60.1238L42.9456 60.1003L38.1814 60.0651L36.5354 56.3244L34.8894 52.5837L35.5269 50.9889C35.8747 50.1094 36.1993 49.2768 36.2572 49.1244L36.3615 48.8547L37.2193 49.3238C37.7873 49.6521 38.2162 49.8045 38.506 49.8045C39.016 49.8045 38.6915 50.1329 42.4819 45.7355C43.9888 43.9765 45.3103 42.5459 45.4146 42.5342C45.5189 42.5342 46.9563 42.8508 48.6023 43.2377ZM33.2898 47.0606C34.02 47.4827 34.6228 47.8462 34.6228 47.858C34.6228 47.8697 34.2866 48.714 33.8809 49.7459L33.1391 51.6221H31.9567H30.7744L30.0325 49.7576C29.6268 48.7257 29.3254 47.858 29.3602 47.8228C29.4182 47.7524 31.864 46.2983 31.9335 46.2983C31.9451 46.2866 32.5595 46.6384 33.2898 47.0606ZM34.5764 56.8404L35.9906 60.0651L33.9737 60.1003C32.8609 60.112 31.0526 60.112 29.9398 60.1003L27.9228 60.0651L29.14 57.3094C29.8007 55.7967 30.4498 54.3309 30.5657 54.0495L30.786 53.5453L31.9683 53.5804L33.1507 53.6156L34.5764 56.8404Z" fill="#4ca35a"/>
</svg>
