<svg width="64" height="64" viewBox="0 0 64 64" fill="#4ca35a" xmlns="http://www.w3.org/2000/svg">
<g clip-path="url(#clip0_247_11)">
<path d="M23.8091 0.191286C22.3958 0.450615 20.6453 1.04707 19.2579 1.74726C15.7181 3.54959 12.7488 6.80416 11.3484 10.4477L10.9853 11.3683L8.83289 11.4202C6.75826 11.4591 6.65453 11.4721 5.90248 11.8351C4.90406 12.3279 3.91861 13.3133 3.42589 14.3117L3.04986 15.0897L3.01096 33.7484C2.98503 52.0959 2.98503 52.4071 3.24436 53.5222C3.39996 54.1576 3.77598 55.1819 4.15201 55.934C5.55238 58.7606 7.87337 60.7315 11.0242 61.7818L12.1264 62.1578H27.8157C45.6057 62.1578 44.0627 62.2486 46.4874 61.0557C48.7954 59.9146 50.52 58.1642 51.674 55.8043C52.6075 53.8853 52.6724 53.5092 52.7372 49.8786L52.802 46.663H53.3726C54.0987 46.663 55.3824 46.2351 56.1733 45.7423C56.8994 45.2756 57.8071 44.329 58.2479 43.551C58.987 42.2803 59 42.0988 59 35.3692C59 29.4046 58.987 29.1453 58.7277 28.4451C58.5591 27.9783 58.235 27.4986 57.833 27.0837C56.9124 26.163 56.1344 25.9167 54.2673 25.9167H52.7761V22.6362C52.7761 19.7836 52.7372 19.213 52.5168 18.3443C51.6999 15.1286 49.0418 12.4705 45.8261 11.6536C45.2297 11.498 44.3998 11.3943 43.7644 11.3943H42.7012L42.3381 10.4477C40.9378 6.80416 37.9814 3.54959 34.4157 1.73429C33.0412 1.0341 31.2907 0.450615 29.7477 0.17832C28.3344 -0.0680423 25.1965 -0.0550758 23.8091 0.191286ZM29.7607 2.47338C35.3363 3.57552 39.8097 8.06191 40.9767 13.7282C41.223 14.8952 41.249 15.375 41.1971 17.0995C41.1063 19.8225 41.1582 19.6928 39.9782 19.6928H39.0187L39.1225 19.0704C39.1743 18.7333 39.2262 17.5274 39.2262 16.3864C39.2262 14.6229 39.1743 14.1561 38.928 13.2874C37.6313 8.77506 34.0785 5.37786 29.5921 4.39241C28.0621 4.05528 25.6244 4.05528 24.0944 4.39241C19.608 5.37786 16.0552 8.77506 14.7585 13.2874C14.5122 14.1561 14.4603 14.6229 14.4603 16.3864C14.4603 17.5274 14.5122 18.7333 14.5641 19.0704L14.6678 19.6928H13.6953H12.7228L12.6191 19.2001C12.5672 18.9407 12.5154 17.696 12.5154 16.4512C12.5283 14.5451 12.5672 14.0135 12.8136 13.1447C13.812 9.44932 15.8348 6.60967 18.9078 4.56097C22.1235 2.42151 25.8708 1.69539 29.7607 2.47338ZM29.255 6.5967C31.3556 7.12832 33.4172 8.412 34.7787 10.0458C35.5826 11.0183 36.4903 12.8465 36.8274 14.1691C37.1516 15.4398 37.1775 17.5144 36.8793 18.7981L36.6718 19.6928H34.3638H32.0558L32.0039 18.7981C31.965 18.072 31.8742 17.7867 31.5501 17.2421L31.1351 16.5809L31.5501 15.9066C31.9131 15.3231 31.965 15.1027 32.0039 14.1821C32.0428 13.3263 32.0039 12.9891 31.7964 12.5353C31.4593 11.7573 30.8628 11.109 30.1497 10.733C29.5921 10.4348 29.5662 10.3959 29.5662 9.85127C29.5662 8.90473 28.8271 8.412 27.9454 8.74913C27.6601 8.86583 27.3619 9.48821 27.3619 9.96797C27.3619 10.331 27.336 10.357 26.8433 10.357C26.3505 10.357 26.3246 10.331 26.3246 9.96797C26.3246 9.48821 26.0264 8.86583 25.7411 8.74913C24.8724 8.42497 24.1203 8.91769 24.1203 9.79941V10.357H23.1478C21.9679 10.357 21.6567 10.5774 21.6567 11.3943C21.6567 12.1723 21.9808 12.4316 22.9533 12.4316H23.7313V16.0622V19.6928H20.373H17.0147L16.7943 18.7592C16.5349 17.5793 16.5349 15.5954 16.7943 14.3636C17.0666 13.1188 18.1039 11.0183 18.9078 10.0458C20.2563 8.42497 22.305 7.14129 24.3796 6.5967C25.7281 6.25957 27.8806 6.24661 29.255 6.5967ZM28.6845 12.5613C30.1756 12.9762 30.1756 14.9989 28.6845 15.4139C28.4252 15.4787 27.6601 15.5435 27.0118 15.5435H25.8059V13.9876V12.4316H27.0118C27.6601 12.4316 28.4252 12.4964 28.6845 12.5613ZM10.3629 14.0783C10.3111 14.4284 10.2592 15.5435 10.2592 16.5809C10.2592 17.6182 10.3111 18.7333 10.3629 19.0704L10.4667 19.6928H9.32561C7.82151 19.6928 6.97869 19.4983 6.33037 19.0056C4.94296 17.9423 4.78736 15.8029 6.00621 14.5322C6.77123 13.7282 7.48438 13.5078 9.35155 13.4819L10.4667 13.4689L10.3629 14.0783ZM45.0611 13.7542C46.5782 14.0783 48.173 15.1156 49.1325 16.4123C50.2995 17.9683 50.5589 18.9148 50.6626 22.0138L50.7404 24.4126L50.0402 23.5827C48.6398 21.936 46.2021 20.4448 44.1794 19.991C43.3884 19.8095 43.1939 19.7187 43.2588 19.5631C43.4014 19.239 43.4662 14.9989 43.3495 14.2339L43.2199 13.5078L43.8163 13.5597C44.1405 13.5856 44.711 13.6764 45.0611 13.7542ZM28.6845 17.7478C29.3458 17.9423 29.8255 18.5388 29.8255 19.1871V19.6928H27.8157H25.8059V18.6555V17.6182H27.0118C27.6601 17.6182 28.4252 17.683 28.6845 17.7478ZM24.7038 21.7674C42.7012 21.8452 42.7271 21.8452 43.6348 22.1175C45.5927 22.7269 46.7856 23.4401 48.0174 24.7367C49.5345 26.3446 50.3384 28.108 50.5718 30.3512C50.6367 31.0125 50.7015 31.6867 50.7015 31.8423V32.1276L46.2021 32.1665L41.6898 32.2054L40.7822 32.5685C38.928 33.2946 37.3201 34.9154 36.6199 36.7436C36.3217 37.4827 36.2569 37.9236 36.205 39.1424C36.1532 40.5039 36.1791 40.7373 36.5032 41.6709C37.2553 43.953 38.8761 45.5738 41.1452 46.3388C42.1177 46.663 42.1696 46.663 46.4355 46.663H50.7404L50.6626 49.347C50.5718 52.4849 50.3903 53.4314 49.5086 55.13C48.8343 56.4267 47.2913 58.0475 46.0465 58.7736C44.9185 59.4219 43.4922 59.8887 42.1566 60.0313C40.7044 60.174 15.0568 60.174 13.6045 60.0313C12.256 59.8887 10.8427 59.4219 9.71461 58.7736C8.65136 58.1512 7.05649 56.5563 6.4341 55.4931C5.35789 53.6389 5.07263 52.07 5.05966 47.9855V45.6256H9.72757H14.3955V47.9596C14.3955 50.125 14.4085 50.3065 14.6548 50.5529C14.9012 50.7993 15.0827 50.8122 19.3876 50.8122C23.3294 50.8122 23.861 50.8381 23.861 51.0067C23.861 51.3957 24.4056 52.2645 24.9761 52.835C26.5321 54.3391 29.2939 54.3132 30.8628 52.7572C32.9245 50.6826 32.1854 46.8964 29.5014 45.8979C27.9454 45.3145 26.0782 45.6516 24.9761 46.7148C24.4056 47.2853 23.861 48.1541 23.861 48.5431C23.861 48.7117 23.4072 48.7376 20.1655 48.7376H16.4701V46.4036C16.4701 44.2382 16.4571 44.0567 16.2108 43.8103C15.9644 43.564 15.7829 43.551 10.5056 43.551H5.05966V42.5137V41.4764H14.4603C22.8366 41.4764 23.861 41.5023 23.861 41.6709C23.861 42.0599 24.4056 42.9286 24.9761 43.4992C26.5321 45.0033 29.2939 44.9773 30.8628 43.4214C32.9245 41.3467 32.1854 37.5605 29.5014 36.5621C27.9454 35.9786 26.0782 36.3158 24.9761 37.379C24.4056 37.9495 23.861 38.8183 23.861 39.2073C23.861 39.3758 22.8366 39.4018 14.4603 39.4018H5.05966V38.3644V37.3271H10.5056C15.7829 37.3271 15.9644 37.3142 16.2108 37.0678C16.4571 36.8214 16.4701 36.6399 16.4701 33.9559V31.1032H20.1655C23.4072 31.1032 23.861 31.1292 23.861 31.2977C23.861 31.6867 24.4056 32.5555 24.9761 33.126C26.0782 34.1893 27.9454 34.5264 29.5014 33.9429C32.1854 32.9445 32.9245 29.1583 30.8628 27.0837C29.2939 25.5277 26.5321 25.5018 24.9761 27.0059C24.4056 27.5764 23.861 28.4451 23.861 28.8341C23.861 29.0027 23.3294 29.0286 19.3876 29.0286C15.0827 29.0286 14.9012 29.0416 14.6548 29.2879C14.4085 29.5343 14.3955 29.7158 14.3955 32.3999V35.2525H9.72757H5.05966V28.0821V20.8987L5.86358 21.3006L6.6675 21.7026L24.7038 21.7674ZM55.7714 28.3284C56.4197 28.7174 56.7957 29.3398 56.7957 30.0659C56.7957 30.7921 56.4197 31.4144 55.7714 31.8034C55.4472 31.985 55.0193 32.0628 54.0598 32.1146L52.7761 32.1795V30.0659V27.9524L54.0598 28.0172C55.0193 28.0691 55.4472 28.1469 55.7714 28.3284ZM28.892 28.3803C30.5776 29.4046 29.8515 32.0109 27.8806 32.0109C26.7784 32.0109 25.9356 31.1681 25.9356 30.0659C25.9356 28.9638 26.7784 28.121 27.8806 28.121C28.2307 28.121 28.6326 28.2247 28.892 28.3803ZM56.8865 37.4827C56.8605 39.7778 56.7827 41.3338 56.679 41.632C56.316 42.773 55.1101 43.9789 53.969 44.342C53.3077 44.5624 44.4257 44.6532 43.0124 44.4716C42.4419 44.3938 41.6639 44.1864 41.2749 44.0048C40.3672 43.5899 39.2392 42.4618 38.7983 41.5153C38.4871 40.841 38.4482 40.6076 38.4482 39.4018C38.4482 38.1959 38.4871 37.9495 38.7983 37.3012C39.5374 35.7063 41.0545 34.6042 42.8568 34.3449C43.3625 34.28 46.4744 34.2152 49.7938 34.2022C54.5136 34.2022 55.927 34.1633 56.2771 34.0207C56.5234 33.9299 56.7827 33.8392 56.8346 33.8392C56.8994 33.8262 56.9254 35.4729 56.8865 37.4827ZM28.892 38.7534C30.5776 39.7778 29.8515 42.384 27.8806 42.384C26.7784 42.384 25.9356 41.5412 25.9356 40.4391C25.9356 38.935 27.6083 37.9755 28.892 38.7534ZM28.892 48.0893C30.5776 49.1136 29.8515 51.7199 27.8806 51.7199C26.7784 51.7199 25.9356 50.877 25.9356 49.7749C25.9356 48.6728 26.7784 47.8299 27.8806 47.8299C28.2307 47.8299 28.6326 47.9337 28.892 48.0893Z" fill="#4ca35a"/>
<path d="M41.9361 36.0175C41.171 36.3676 40.5227 36.99 40.1467 37.7421C39.8744 38.2867 39.8096 38.5978 39.8096 39.4018C39.8096 40.2057 39.8744 40.5169 40.1467 41.0615C40.5357 41.8265 41.184 42.4489 42.0009 42.8119C42.8437 43.188 44.4645 43.0842 45.2814 42.6045C46.5002 41.8913 47.0578 40.8799 47.0708 39.3888C47.0708 38.5978 47.0059 38.2867 46.7336 37.7421C46.0853 36.4325 44.9832 35.7712 43.4402 35.7712C42.7659 35.7712 42.2991 35.849 41.9361 36.0175ZM44.4256 38.4163C44.7887 38.7794 44.8665 38.9609 44.8665 39.4018C44.8665 39.8426 44.7887 40.0242 44.4256 40.3872C44.0626 40.7503 43.881 40.8281 43.4402 40.8281C42.9993 40.8281 42.8178 40.7503 42.4547 40.3872C41.949 39.8815 41.8712 39.2332 42.2343 38.6238C42.4936 38.17 42.8437 38.0014 43.492 37.9884C43.881 37.9755 44.0755 38.0662 44.4256 38.4163Z" fill="#4ca35a"/>
</g>
<defs>
<clipPath id="clip0_247_11">
<rect width="64" height="64" fill="#4ca35a"/>
</clipPath>
</defs>
</svg>
