<svg xmlns="http://www.w3.org/2000/svg" width="509" height="526" fill="none"><g clip-path="url(#a)" fill="#306a46"><path d="M340.638 245.14a55.682 55.682 0 0 0 5.371-54.901 55.532 55.532 0 0 0-17.932-22.166 55.35 55.35 0 0 0-26.543-10.32v-28.226h-25.107v27.806h-17.094v-27.806h-25.13v27.806h-42.784v31.471h29.835v128.103h-29.835v31.495h42.784v27.806h25.13v-27.806h17.094v27.806h25.107v-27.806h10.55a55.386 55.386 0 0 0 33.553-11.362 55.614 55.614 0 0 0 19.859-29.395 55.733 55.733 0 0 0-1.929-35.449 55.576 55.576 0 0 0-22.929-27.056Zm-45.276-56.266a24.075 24.075 0 0 1 17.045 7.078 24.193 24.193 0 0 1 7.06 17.086c0 6.409-2.54 12.555-7.06 17.086a24.075 24.075 0 0 1-17.045 7.078h-42.667v-48.398l42.667.07Zm16.722 128.033h-59.389v-48.304h59.389a24.069 24.069 0 0 1 17.527 6.802 24.183 24.183 0 0 1 7.327 17.35 24.204 24.204 0 0 1-7.327 17.35 24.082 24.082 0 0 1-17.527 6.802Z" style="mix-blend-mode:color-dodge"/><path d="M300.439 130.531v28.016h.909a54.352 54.352 0 0 1 26.043 10.14 54.532 54.532 0 0 1 17.593 21.756 54.668 54.668 0 0 1-5.255 53.88l-.652.887.955.56a54.573 54.573 0 0 1 22.563 26.548 54.742 54.742 0 0 1 1.932 34.823 54.62 54.62 0 0 1-19.486 28.893 54.393 54.393 0 0 1-32.957 11.177h-11.645v27.97h-23.08v-27.806h-19.144v27.806h-22.987v-27.806h-42.807v-29.44h29.904V187.777h-29.904V158.36h42.807v-27.829h23.08v27.829h19.144v-27.829h22.987Zm-48.908 107.605h43.691c6.53-.2 12.725-2.94 17.273-7.64a25.224 25.224 0 0 0 7.092-17.54 25.223 25.223 0 0 0-7.092-17.539 25.1 25.1 0 0 0-17.273-7.64H251.67v50.359m0 79.799h60.414c6.53-.2 12.725-2.94 17.273-7.64a25.227 25.227 0 0 0 7.092-17.54 25.223 25.223 0 0 0-7.092-17.539 25.096 25.096 0 0 0-17.273-7.64H251.67v50.359Zm49.864-188.408h-25.107v27.806h-17.094v-27.806h-25.13v27.806h-42.784v31.471h29.835v128.103h-29.835v31.495h42.784v27.806h25.13v-27.806h17.094v27.806h25.107v-27.806h10.55a55.386 55.386 0 0 0 33.553-11.362 55.614 55.614 0 0 0 19.859-29.395 55.733 55.733 0 0 0-1.929-35.449 55.576 55.576 0 0 0-22.929-27.056 55.682 55.682 0 0 0 5.371-54.901 55.532 55.532 0 0 0-17.932-22.166 55.35 55.35 0 0 0-26.543-10.32v-28.226Zm-48.909 107.605v-48.328h42.667a24.075 24.075 0 0 1 17.045 7.078 24.19 24.19 0 0 1 7.06 17.086 24.19 24.19 0 0 1-7.06 17.086 24.075 24.075 0 0 1-17.045 7.078h-42.667Zm0 79.775v-48.304h59.459a24.069 24.069 0 0 1 17.527 6.802 24.183 24.183 0 0 1 7.327 17.35 24.204 24.204 0 0 1-7.327 17.35 24.082 24.082 0 0 1-17.527 6.802h-59.459Z"/><path d="M91.483 208.602c.28-1.067.614-2.119 1.001-3.151l4.658-14.475c1.444-3.969 2.609-6.537 2.632-6.537l.14-.304h.303s5.403-1.564 10.527-2.802c2.608-.63 5.193-1.214 7.103-1.61 0 0 1.91-.397 2.958-.537l3.936-7.004c.466-.771.908-1.611 1.374-2.475.862-1.588 1.817-3.339 2.935-5.09l8.547-12.303a27.83 27.83 0 0 1 2.143-2.685l1.094-1.308 5.613-6.607a37.865 37.865 0 0 1 4.216-4.669l1.63-1.588 1.001 1.028-1.677 1.61a39.733 39.733 0 0 0-4.052 4.46l-5.613 6.63-1.141 1.308c-.652.77-1.351 1.564-1.933 2.334l-8.524 12.281c-1.095 1.657-2.003 3.338-2.865 4.949l-1.49 2.708-4.379 7.845h-.419c-.373 0-1.537.21-3.051.56-1.91.397-4.472.957-6.987 1.588-4.402 1.05-8.92 2.334-10.154 2.708-.35.77-1.328 3.012-2.516 6.047l-4.658 14.428a55.534 55.534 0 0 0-1.98 7.798l-2.794 13.447c.186.327.559.957 1.118 1.775l2.98 4.319 4.659 6.443-.699 6.491c-.163 2.334-.163 5.229-.163 8.264v5.464a71.723 71.723 0 0 0 .536 10.973c0 .957.186 1.844.256 2.684l.605 6.514-1.304 1.798c-.489.7-1.118 1.587-1.63 2.334l-2.329 3.946 1.374 7.004c.163.747.326 1.564.466 2.451a33.968 33.968 0 0 0 1.141 4.927l2.492 8.404c.326 1.004.606 2.032.908 3.035a49.507 49.507 0 0 0 1.701 5.253l5.752 14.219-.675 2.194-1.048 4.156-1.398 6.023 4.658 8.709 5.59 8.638c.582.864 1.164 1.774 1.747 2.685a61.74 61.74 0 0 0 4.96 7.004l1.607 2.031a150.119 150.119 0 0 0 12.554 14.965l6.987 7.121h17.118l4.495 3.829c1.7 1.284 3.889 2.801 6.195 4.389l3.912 2.731 1.98 1.378c1.188.84 2.329 1.634 3.47 2.334l9.572 5.487 7.29-1.798 7.732-2.615 4.425 1.915c.839.327 1.747.747 2.725 1.19a39.188 39.188 0 0 0 6.475 2.475l13.974 4.459-.443 1.355-13.974-4.413a42.17 42.17 0 0 1-6.661-2.568 53.933 53.933 0 0 0-2.678-1.167l-3.959-1.705-7.267 2.475-7.895 1.938-10.224-5.697c-1.211-.747-2.329-1.587-3.587-2.334a59.548 59.548 0 0 0-1.956-1.378l-3.936-2.731c-2.329-1.611-4.495-3.129-6.242-4.436l-4.076-3.572h-14.3c-1.7 0-2.748-.164-2.794-.164h-.233l-7.197-7.447a144.673 144.673 0 0 1-12.739-15.059l-1.584-2.008a64.094 64.094 0 0 1-5.054-7.144l-1.77-2.521-5.566-8.802-4.868-9.339 2.539-10.669.559-1.728-5.59-13.821c-.675-1.704-1.21-3.572-1.747-5.393-.28-1.004-.558-2.008-.885-3.012l-2.492-8.404a35.62 35.62 0 0 1-1.187-5.113c-.14-.841-.28-1.635-.466-2.335l-1.468-7.611 2.656-4.413c.535-.887 1.187-1.797 1.7-2.521l.978-1.354-.559-5.977c0-.84-.163-1.728-.256-2.661a74.543 74.543 0 0 1-.536-11.183v-5.394c0-3.081 0-6 .163-8.404l.629-5.977-4.285-6-3.051-4.483c-.862-1.26-1.305-2.101-1.328-2.124v-.234l2.888-14.008c.303-1.471.536-3.128.955-4.646Z" style="mix-blend-mode:screen"/><path d="m231.245 422.761 16.746 3.502c1.909.257 3.936.467 6.008.677 1.258 0 2.516.234 3.773.397 1.258.163 2.329.233 3.634.374 2.035.304 4.09.452 6.148.443h14.789l2.609-.257.233.304s3.4 3.992 6.986 7.868a215.101 215.101 0 0 0 7.407 7.587l1.56-.14c.722 0 1.677-.28 2.795-.513l2.073-.397 4.658-.887c3.167-.607 6.754-1.285 10.27-2.148l14.533-4.343a21.254 21.254 0 0 0 3.308-1.191c.432-.209.875-.396 1.327-.56l1.491-.584 3.377-6.677 3.353-7.004h.303c.49-.18.965-.399 1.421-.653l4.029-2.125c1.141-.63 2.469-1.307 3.866-2.031 2.562-1.307 5.45-2.778 8.175-4.483l11.645-7.517a18.26 18.26 0 0 0 2.585-1.891c.373-.304.699-.584 1.025-.817l1.513-1.214 5.148.326 4.658.234 1.397-1.121.815-.653a27.848 27.848 0 0 0 3.191-2.802l3.61-3.479c2.515-2.334 5.356-5.159 8.105-7.961l10.573-12.444a35.255 35.255 0 0 0 2.329-3.058l.885-1.284 1.328-1.891 6.451-1.635 6.079-1.704c.233-.303.698-1.004 1.35-2.054l8.362-15.526c1.071-2.218 2.072-4.552 3.12-7.004.536-1.237 1.072-2.521 1.631-3.759a123.867 123.867 0 0 0 6.334-17.229c.396-1.285.769-2.499 1.142-3.619a68.49 68.49 0 0 0 2.585-9.339c-.443-.887-2.329-4.272-3.983-7.447-1.653-3.176-3.516-6.141-4.052-7.004h-.396l.186-.701c.388-1.793.652-3.61.792-5.44l1.304-12.397c.232-1.866.325-3.746.28-5.626v-12.117a71.355 71.355 0 0 0-5.38-5.37l-6.987-6.35h1.001c-.209-3.782-3.982-25.892-5.03-27.549l.512-.327-.209-.864.791.257c1.025 1.191 5.334 24.771 5.357 28.833l5.66 4.763c2.515 2.334 4.657 4.669 5.519 5.51h.326v12.957a37.603 37.603 0 0 1-.302 5.79l-1.305 12.35a36.16 36.16 0 0 1-.768 5.393 369.16 369.16 0 0 1 4.075 7.004 286.048 286.048 0 0 1 4.123 7.705l.302.583-.279.187a71.049 71.049 0 0 1-2.632 9.526c-.372 1.12-.745 2.334-1.141 3.618a122.988 122.988 0 0 1-6.405 17.37l-1.607 3.759c-1.071 2.498-2.072 4.856-3.19 7.004l-8.618 15.526c-1.42 2.334-1.746 2.731-2.119 2.708l-6.172 1.704-5.962 1.541-1.001 1.447c-.28.374-.559.794-.862 1.261-.629.887-1.374 2.008-2.329 3.175l-10.62 12.491c-2.818 2.848-5.66 5.58-8.175 8.008l-3.587 3.478a30.277 30.277 0 0 1-3.33 2.919l-.792.63-1.817 1.471-9.828-.56-1.118.91a8.609 8.609 0 0 0-.955.771 24.335 24.335 0 0 1-2.748 2.007l-11.505 7.495c-2.795 1.751-5.729 3.245-8.315 4.669-1.397.724-2.701 1.377-3.842 2.031l-4.03 2.101c-.437.26-.897.479-1.374.654l-3.074 6.537-3.82 7.378-2.002.793-1.258.514c-1.134.522-2.31.943-3.517 1.261l-14.509 4.342c-3.587.911-7.22 1.588-10.411 2.195l-4.518.887-2.073.397c-1.141.233-2.119.42-2.911.537l-2.329.21-.256-.234c-1.025-1.003-4.472-4.412-7.686-7.891-3.214-3.478-5.986-6.653-6.847-7.634l-1.933.187h-14.813a42.014 42.014 0 0 1-6.358-.444 56.134 56.134 0 0 0-3.563-.397l-3.82-.397c-2.073-.21-4.122-.42-6.078-.677l-16.792-3.525.372-1.611ZM80.28 205.45a207.012 207.012 0 0 1 13.369-36.747 207.052 207.052 0 0 1 25.898-40.133 443.447 443.447 0 0 0 3.796-4.459c1.957-2.335 3.564-4.226 4.891-5.65l3.447-3.339 2.143 2.335-3.4 3.175c-1.235 1.331-2.842 3.222-4.658 5.487-1.165 1.377-2.329 2.871-3.82 4.482a204.878 204.878 0 0 0-25.549 39.479 207.38 207.38 0 0 0-18.399 63.667 196.082 196.082 0 0 0 5.59 75.643 199.958 199.958 0 0 0 33.607 68.009 189.697 189.697 0 0 0 48.163 45.292 75 75 0 0 0 9.316 5.767l2.632 1.471 4.122 2.334c2.329 1.354 4.658 2.638 6.987 3.642l10.225 4.436c1.048.397 2.072.864 3.074 1.308a38.561 38.561 0 0 0 5.496 2.147l17.211 5.464-.931 2.941-17.141-5.44a36.713 36.713 0 0 1-5.893-2.334c-.955-.42-1.956-.864-3.004-1.284l-10.271-4.459a76.674 76.674 0 0 1-7.197-3.783c-1.327-.747-2.678-1.541-4.075-2.334l-2.632-1.448a75.433 75.433 0 0 1-9.619-5.977 192.508 192.508 0 0 1-48.908-45.922 203.015 203.015 0 0 1-34.12-69.083 199.034 199.034 0 0 1-5.706-76.671 208.998 208.998 0 0 1 5.356-28.016Z" style="mix-blend-mode:screen"/><path d="m68.263 217.24 12.087 2.545-.419 2.055c0 .35-.21.957-.35 1.657-.139.701-.511 2.335-.721 3.759-.21 1.424-.35 3.502-.606 5.79-.466 4.319-1.001 9.339-1.42 14.825a207.992 207.992 0 0 0 6.987 61.449l2.888 9.712a47.158 47.158 0 0 0 2.026 5.977l6.358 15.595 9.316 17.65 4.914 7.588a125.983 125.983 0 0 0 10.131 14.008l5.66 7.004c.558.7.885 1.074.978 1.167l-8.897 8.872a24.263 24.263 0 0 1-1.84-2.195l-5.543-7.004a131.484 131.484 0 0 1-10.97-15.315l-6.311-9.922-8.827-16.927-6.358-15.619a55.17 55.17 0 0 1-2.539-7.377l-2.91-9.689a221.63 221.63 0 0 1-7.384-65.581c.42-6.023 1.002-11.276 1.468-15.479.233-2.194.442-4.155.605-5.883.303-2.148.652-3.712.932-4.973 0-.537.21-.98.28-1.377l.465-2.312Zm63.418-102.118 9.992-9.712 14.905-11.883c1.071-.747 2.119-1.424 3.191-2.125l12.39-8.078c2.562-1.47 5.17-2.825 7.872-4.225l4.658-2.452a205.648 205.648 0 0 1 64.257-19.775c51.817-6.787 104.229 6.995 146.05 38.406a206.099 206.099 0 0 1 46.277 48.794c.978 1.541 1.957 3.012 2.912 4.459 1.653 2.545 3.283 5.02 4.658 7.495l6.986 13.214c.583 1.121 1.165 2.335 1.701 3.315l7.476 18.678 3.703 12.467-2.958.887-3.983-13.378-6.987-17.416a99.335 99.335 0 0 0-1.607-3.129l-6.987-13.167c-1.374-2.335-2.981-4.67-4.657-7.285l-2.912-4.459a202.902 202.902 0 0 0-45.531-48.024c-41.18-30.933-92.793-44.498-143.815-37.798a201.727 201.727 0 0 0-63.139 19.448l-4.658 2.334c-2.655 1.378-5.24 2.732-7.662 4.133L161.469 93.9c-1.048.654-2.05 1.331-3.028 1.985l-15.278 12.303-9.316 9.059-2.166-2.125Z" style="mix-blend-mode:screen"/><path d="m232.899 50.429 9.176-1.775c1.048-.21 2.166-.443 3.331-.583l16.931-1.611a227.568 227.568 0 0 1 65.631 6.49 226.48 226.48 0 0 1 60.204 26.429l14.114 9.805a33.604 33.604 0 0 1 2.725 2.335l6.987 6.07-8.012 9.339-6.102-5.207-1.094-.957c-.536-.467-1.095-.957-1.747-1.424l-13.788-9.619a216.323 216.323 0 0 0-56.361-24.794 215.648 215.648 0 0 0-61.718-6.093l-16.536 1.564c-.699 0-1.421.233-2.119.373-.699.14-1.072.234-1.584.304l-7.709 1.517-2.329-12.163Zm-8.594 398.76 17.584 3.689c1.944.456 3.923.745 5.915.864l3.354.35 11.063 1.191c2.588.202 5.184.273 7.779.21h7.615a70.853 70.853 0 0 0 10.83-.42 189.822 189.822 0 0 0 64.35-15.713 198.804 198.804 0 0 0 62.58-42.747 195.572 195.572 0 0 0 41.922-63.036A206.483 206.483 0 0 0 472.435 269a204.976 204.976 0 0 0-2.888-46.857 462.114 462.114 0 0 1-1.118-5.813c-.559-2.918-1.024-5.346-1.467-7.191l-1.304-4.436 2.958-.887 1.327 4.506c.489 1.985.955 4.459 1.514 7.424.349 1.751.699 3.689 1.118 5.767a209.004 209.004 0 0 1 2.958 47.65 211.05 211.05 0 0 1-15.372 65.581 198.482 198.482 0 0 1-42.573 64.157 202.185 202.185 0 0 1-63.535 43.425 192.926 192.926 0 0 1-65.212 15.945 75.312 75.312 0 0 1-11.156.444h-7.522a76.823 76.823 0 0 1-8.128-.257l-11.086-1.167-3.284-.35a38.058 38.058 0 0 1-6.335-.934l-17.747-3.783.722-3.035Z" style="mix-blend-mode:screen"/><path d="m335.91 448.256 3.936-3.689c.459-.147.91-.319 1.35-.514l8.501-3.455a118.333 118.333 0 0 0 15.558-7.214l12.041-6.654 12.926-8.428 12.972-10.296a46.835 46.835 0 0 0 4.868-4.319l7.383-7.168a207.749 207.749 0 0 0 36.122-50.195c2.329-4.926 4.239-9.479 5.962-13.494.885-2.101 1.677-3.969 2.329-5.603.443-1.098.792-2.335 1.118-3.339.326-1.004.373-1.284.559-1.774l.582-1.845 11.785 3.736-.652 2.008-.466 1.494a68.57 68.57 0 0 1-1.514 4.506c-.652 1.727-1.583 3.665-2.329 5.673-1.676 3.899-3.726 8.778-6.241 14.008a219.835 219.835 0 0 1-38.545 53.58l-7.43 7.215a55.744 55.744 0 0 1-5.985 5.299l-13.485 10.67-19.959 12.537-6.032 3.152a133.48 133.48 0 0 1-16.885 7.844l-8.338 3.385c-1.304.561-2.189.841-2.329.911l-1.887-5.907-5.915-2.124Zm-114.098-18.323-.565 1.78 7.08 2.257.565-1.78-7.08-2.257Zm-27.016-8.456.769-1.704 1.095.467 8.64 3.735-.745 1.728-8.594-3.736-1.165-.49Zm16.303 7.004.559-1.798 3.377 1.074-.559 1.775-3.377-1.051ZM95.885 221.233l1.84.373-.373 1.868c0 .537-.256 1.238-.42 1.985a41.512 41.512 0 0 0-.93 5.229v1.284l-1.864-.163v-1.284c.217-1.847.544-3.679.978-5.487.163-.723.303-1.354.42-1.914l.349-1.891Zm-2.725 17.603 1.863.21c0 1.121-.256 2.335-.35 3.502l-1.886-.186c.21-1.214.373-2.382.373-3.526Zm-.862 10.67h1.863a80.44 80.44 0 0 0 0 7.494c.117 2.451 0 4.366 0 6.63h-1.886V257c0-2.125-.023-4.856.093-7.494h-.07Zm.326 19.588 1.887-.117a165.81 165.81 0 0 0 1.024 10.529l-1.863.234c-.396-3.549-.745-7.144-.978-10.646h-.07Zm2.073 17.696 1.84-.303c.186 1.167.396 2.334.605 3.478l-1.84.351c-.14-1.191-.349-2.358-.535-3.526h-.07Zm2.026 10.506 1.817-.42c1.048 4.669 2.329 9.339 3.586 13.658l-1.793.537c-1.28-4.459-2.515-9.105-3.54-13.775h-.07Zm5.24 18.864 1.77-.583c1.118 3.338 2.329 6.677 3.68 9.899l-1.723.723a222.562 222.562 0 0 1-3.657-10.039h-.07Zm6.568 16.577 1.7-.794c.42.957.885 1.891 1.328 2.848l.186.304-1.653.887-.187-.351c-.442-.98-.861-1.937-1.304-2.894h-.07Zm4.821 9.525 1.654-.864a100.89 100.89 0 0 0 6.987 12.164l-1.514 1.097a96.528 96.528 0 0 1-7.057-12.397h-.07Zm10.085 16.81 1.583-1.028 3.075 4.67 3.027 3.828-1.467 1.168-3.726-4.88-2.492-3.758Zm10.573 14.288 1.491-1.144a62.367 62.367 0 0 0 2.212 2.708l-1.444 1.214a53.882 53.882 0 0 1-2.282-2.778h.023Zm6.987 8.078 1.351-1.308 2.609 2.755c.931.934 1.839 1.868 2.724 2.802l3.238 3.362c.419.397.885.793 1.374 1.214l-1.211 1.424a26.207 26.207 0 0 1-1.468-1.308l-3.283-3.385-2.725-2.825c-.839-.98-1.7-1.844-2.539-2.731h-.07Zm13.974 13.587 1.211-1.447 4.518 3.805a44.82 44.82 0 0 0 3.61 3.035l-1.141 1.495a54.967 54.967 0 0 1-3.726-3.129l-4.472-3.759Zm13.974 10.997 1.071-1.565c.885.631 1.77 1.214 2.586 1.845l.302.21-1.071 1.541-.303-.234c-.698-.607-1.514-1.19-2.445-1.797h-.14Zm8.757 6.046 1.025-1.587a37.246 37.246 0 0 0 3.447 2.008l8.827 4.926-.909 1.634-8.803-4.903a38.239 38.239 0 0 1-3.447-2.078h-.14ZM98.097 210.61l1.84.397-1.514 7.284-1.84-.373 1.514-7.308Z" style="mix-blend-mode:screen"/><path d="m98.12 210.517 2.26-7.098 1.793.561-2.26 7.12-1.792-.583Zm4.356-13.798 1.071-3.385 1.793.56-1.071 3.385-1.793-.56Zm3.889-9.946 3.703-8.615c.163-.42.326-.817.489-1.167l1.7.77-.465 1.098-3.727 8.661-1.7-.747Zm6.614-14.428 4.891-8.918c.513-1.028 1.211-2.335 2.073-3.596l1.584 1.027a34.55 34.55 0 0 0-1.98 3.456l-4.937 8.848-1.631-.817Zm10.993-18.257.21-.304a127.57 127.57 0 0 0 1.817-2.591l1.537 1.074a123.7 123.7 0 0 1-1.817 2.591l-.21.327-1.537-1.097Zm6.126-8.732a53.594 53.594 0 0 1 3.097-3.735l3.773-4.436 1.421 1.214-3.797 4.483a40.607 40.607 0 0 0-3.004 3.618l-1.49-1.144Zm10.294-12.28 1.304-1.494 3.377-3.175c.932-.888 1.886-1.798 2.818-2.732l2.632-2.545 1.304 1.354-2.632 2.545-2.818 2.732-3.33 3.245c-.396.42-.815.91-1.211 1.377l-1.444-1.307Zm15.394-14.872c.909-.77 1.817-1.517 2.772-2.335l1.164 1.495a62.112 62.112 0 0 0-2.725 2.218l-1.211-1.378Zm8.338-6.607 4.868-3.759 3.819-2.498 1.025 1.588-4.658 3.081-3.82 3.059-1.234-1.471Zm13.112-9.105a96.114 96.114 0 0 1 12.367-7.144l.839 1.657a101.116 101.116 0 0 0-12.134 7.004l-1.072-1.517Zm18.632-10.413.349-.21 2.888-1.354.792 1.704c-.931.444-1.886.864-2.818 1.331l-.326.187-.885-1.658Zm9.782-4.412a175.513 175.513 0 0 1 9.991-3.736l.606 1.775c-3.331 1.12-6.661 2.334-9.898 3.688l-.699-1.727Zm15.068-5.37a198.18 198.18 0 0 1 13.765-3.619l.396 1.821c-4.658 1.05-9.316 2.335-13.602 3.596l-.559-1.798Zm20.728-5.043 3.494-.607.303 1.844-3.471.608-.326-1.845Zm10.527-1.634c3.564-.467 7.127-.817 10.621-1.05l.139 1.867c-3.47.257-6.987.584-10.527 1.05l-.233-1.867Zm15.954-1.33h14.23v1.867a79.849 79.849 0 0 0-7.476 0c-2.445.117-4.332 0-6.591 0l-.163-1.868Zm21.333.443 3.541.373-.21 1.868c-1.141 0-2.329-.257-3.517-.35l.186-1.891Zm10.551 1.167h1.257a52.07 52.07 0 0 1 5.474.98c.722.164 1.374.327 1.933.42l1.886.398-.396 1.82-1.84-.373c-.559 0-1.234-.257-2.003-.42a44.394 44.394 0 0 0-5.217-.957h-1.281l.187-1.868Zm13.824 2.61-.38 1.828 7.273 1.52.38-1.828-7.273-1.52Z" style="mix-blend-mode:screen"/><path d="m320.981 80.026-.564 1.78 7.082 2.253.564-1.78-7.082-2.253Zm13.252 6.17.559-1.798 3.377 1.074-.559 1.775-3.377-1.051ZM344.015 90l.745-1.727 8.617 3.712 1.141.49-.768 1.704-1.095-.443-8.64-3.736Zm14.183 6.538.909-1.634 8.873 4.926a37.506 37.506 0 0 1 3.587 2.055l-1.002 1.587a37.153 37.153 0 0 0-3.447-1.984l-8.92-4.95Zm18.073 10.857 1.072-1.541.326.21c.838.63 1.676 1.214 2.561 1.821l-1.048 1.541a84.15 84.15 0 0 1-2.608-1.821l-.303-.21Zm8.664 6.093 1.118-1.494a48.69 48.69 0 0 1 3.726 3.105l4.425 3.782-1.211 1.424-4.448-3.782a77.478 77.478 0 0 0-3.61-2.965v-.07Zm12.111 10.273 1.211-1.448 1.467 1.307 3.261 3.409 2.725 2.802 2.561 2.638-1.35 1.284c-.862-.864-1.701-1.751-2.539-2.615l-2.748-2.732-3.214-3.338-1.374-1.307Zm14.602 15.198 1.421-1.214c.769.911 1.537 1.845 2.329 2.778l-1.467 1.168c-.792-.864-1.537-1.775-2.283-2.662v-.07Zm6.568 8.312 1.467-1.168 3.727 4.88 2.492 3.829-1.561 1.027-3.074-4.67-3.051-3.898Zm9.037 13.05 1.537-1.074a100.68 100.68 0 0 1 7.127 12.397l-1.677.841a98.521 98.521 0 0 0-6.987-12.094v-.07Zm10.271 18.491 1.653-.911.186.351c.489 1.003.932 1.937 1.375 2.895l-1.701.793c-.442-.934-.885-1.891-1.35-2.825l-.163-.303Zm4.308 9.595 1.747-.7a160.695 160.695 0 0 1 3.703 10.016l-1.77.607a173.305 173.305 0 0 0-3.68-9.853v-.07Zm5.334 15.036 1.816-.561a195.864 195.864 0 0 1 3.61 13.798l-1.84.397c-1.071-4.623-2.282-9.292-3.586-13.634Zm4.984 20.545 1.839-.327c.233 1.167.443 2.334.629 3.502l-1.863.303c-.233-1.144-.419-2.311-.652-3.478h.047Zm1.63 10.482 1.863-.256c.443 3.572.792 7.144 1.025 10.646l-1.863.14c-.28-3.479-.653-7.004-1.072-10.53h.047Zm1.304 15.806h1.863v14.265h-1.886c0-2.592.14-5.043 0-7.494-.14-2.452.046-4.506-.023-6.771h.046Zm-.442 21.012 1.863.187a185.476 185.476 0 0 1-.373 3.548l-1.863-.21c.093-1.004.21-2.194.326-3.408l.047-.117Zm-1.142 10.576 1.864.187c0 .42 0 .864-.117 1.261a47.027 47.027 0 0 1-.978 5.486 36.127 36.127 0 0 0-.396 1.938l-.396 1.867-1.84-.373.396-1.844c0-.561.233-1.238.419-2.008.402-1.726.713-3.472.932-5.23-.023-.28.023-.654.07-1.167l.046-.117Zm-2.608 13.798 1.84.397-1.514 7.284-1.84-.374 1.514-7.307Z" style="mix-blend-mode:screen"/><path d="m447.166 309.973 2.235-7.097 1.794.56-2.259 7.121-1.77-.584Zm-10.108 26.219.465-1.121 3.727-8.662 1.723.771-3.726 8.615c-.163.397-.326.794-.489 1.144l-1.7-.747Zm6.987-16.226 1.071-3.362 1.77.56-1.048 3.385-1.793-.583ZM239.397 434.364l1.84.374c.535 0 1.211.233 1.979.42 1.72.412 3.462.723 5.217.934l1.281.117-.163 1.867h-1.281a46.61 46.61 0 0 1-5.473-.98l-1.91-.397-1.886-.397.396-1.938Zm17.374 2.615 3.494.374-.163 1.867-3.54-.373.209-1.868Zm10.504.864c2.585.117 5.03.14 7.476 0 2.445-.14 4.355 0 6.591 0v1.868c-2.329 0-4.495.116-6.638 0-2.142-.117-4.937 0-7.569 0l.14-1.868Zm19.354-.327c3.447-.233 6.987-.584 10.503-1.027l.233 1.868c-3.563.443-7.126.793-10.62 1.027l-.116-1.868Zm17.467-2.054 3.47-.607.35 1.844-3.517.63-.303-1.867Zm10.364-2.008c4.658-1.027 9.2-2.335 13.625-3.572l.535 1.774c-4.448 1.378-9.083 2.592-13.741 3.642l-.419-1.844Zm18.632-5.207c3.33-1.12 6.661-2.334 9.875-3.688l.722 1.751a160.977 160.977 0 0 1-10.015 3.712l-.582-1.775Zm16.303-6.49 2.841-1.354.303-.163.885 1.657-.349.187c-.978.49-1.933.934-2.888 1.377l-.792-1.704Zm9.432-4.809a94.784 94.784 0 0 0 12.134-7.004l1.095 1.541a103.729 103.729 0 0 1-12.367 7.144l-.862-1.681Zm16.606-9.923 4.658-3.081 3.819-3.059 1.165 1.471-4.868 3.736-3.703 2.474-1.071-1.541Zm14.137-10.506a30.943 30.943 0 0 0 2.702-2.334l1.211 1.424c-.885.77-1.817 1.541-2.772 2.335l-1.141-1.425Zm7.895-7.004 2.609-2.568 2.818-2.731 3.353-3.222c.396-.42.792-.911 1.212-1.378l1.42 1.214-1.304 1.471-3.377 3.292-2.795 2.708-2.632 2.568-1.304-1.354Zm13.415-14.008 3.796-4.459c1.025-1.097 2.003-2.334 3.028-3.619l1.491 1.121a54.579 54.579 0 0 1-3.121 3.759l-3.75 4.412-1.444-1.214Zm10.9-13.634 1.816-2.615.233-.303 1.537 1.097-.232.303a71.515 71.515 0 0 0-1.794 2.569l-1.56-1.051Zm6.009-8.732a40.911 40.911 0 0 0 2.003-3.455l4.914-8.848 1.63.91-4.891 8.802a35.712 35.712 0 0 1-2.073 3.595l-1.583-1.004Zm-198.984 79.025-.382 1.828 7.272 1.525.382-1.828-7.272-1.525ZM61.02 206.618l2.026.42-1.7 8.078-2.003-.327 1.676-8.171Zm-3.354 16.179 2.026.397-.117.514-.791 7.587-2.05-.163.932-8.335Zm-1.77 16.506 2.05.21-.373 3.596a39.93 39.93 0 0 0-.28 4.669h-2.05c-.001-1.561.092-3.12.28-4.669l.373-3.806Zm-.676 16.6h2.073v8.264H55.22v-8.264Zm.49 16.576 2.026-.187.768 8.171-2.026.21-.769-8.194Zm1.606 16.506 2.05-.327c.163 1.074.396 2.148.605 3.245.21 1.098.35 1.681.49 2.545l.465 2.335-2.026.397-.466-2.335a48.096 48.096 0 0 0-.489-2.522 93.307 93.307 0 0 1-.652-3.338h.023Zm3.144 16.343 2.027-.397.815 4.179c.326 1.214.675 2.498 1.048 3.782l-2.003.56-1.048-3.899-.839-4.225Zm4.262 16.062 1.98-.607a219.306 219.306 0 0 0 2.609 7.798l-1.934.677a292.313 292.313 0 0 1-2.678-7.961l.023.093Zm5.544 15.642 1.932-.84a191.978 191.978 0 0 0 3.121 7.587l-1.91.841c-1.21-2.568-2.165-5.113-3.167-7.681l.023.093Zm6.52 15.222 1.864-.864c1.164 2.475 2.329 4.927 3.633 7.378l-1.84.934c-1.257-2.498-2.492-5.043-3.587-7.541l-.07.093Zm7.593 14.802 1.77-1.051.652 1.168c1.188 1.938 2.33 3.899 3.633 5.813l-1.746 1.121a249.974 249.974 0 0 1-3.657-5.907l-.652-1.144Zm8.92 14.008 1.677-1.191c1.56 2.335 3.167 4.483 4.798 6.678l-1.654 1.237c-1.653-2.358-3.284-4.599-4.844-6.864l.023.14Zm9.875 13.284 1.607-1.284a280.946 280.946 0 0 0 5.24 6.327l-1.583 1.354c-1.794-2.241-3.634-4.366-5.287-6.537l.023.14Zm10.737 12.608 1.537-1.401a195.945 195.945 0 0 0 5.613 5.976l-1.468 1.448a1296.974 1296.974 0 0 1-5.706-6.164l.024.141Zm11.645 11.836 1.327-1.564 6.265 5.346-1.327 1.565-6.265-5.347Zm12.53 10.716 1.35-1.564c.979.864 1.98 1.704 3.005 2.475l3.47 2.335-1.165 1.681-3.516-2.335c-1.095-.981-2.12-1.845-3.144-2.732v.14Zm13.415 9.736 1.187-1.681 6.685 4.669-1.002 1.798-1.141-.747-5.729-4.039Zm13.973 8.778 1.002-1.797 3.517 1.961c1.234.653 2.468 1.354 3.679 2.054l-1.024 1.798c-1.188-.677-2.329-1.378-3.657-2.031l-3.517-1.985Zm14.626 7.798.816-1.891 7.546 3.268-.816 1.915-7.546-3.292Zm15.209 6.444.815-1.891 2.003.863 5.683 1.798-.629 1.961-5.753-1.844-2.119-.887Zm15.72 5.253.629-1.985 7.849 2.498-.629 1.961-7.849-2.474ZM62.184 201.061l2.492-7.868 1.956.631-2.492 7.868-1.956-.631Zm4.984-15.735 1.84-5.79.862-2.102 1.886.818-.885 2.007-1.793 5.674-1.91-.607Zm6.009-15.479 3.26-7.565 1.887.818-3.26 7.564-1.887-.817Zm6.987-15.035c.675-1.191 1.374-2.335 2.026-3.666l1.98-3.525 1.793 1.004-1.956 3.525a189 189 0 0 1-2.073 3.689l-1.77-1.027Zm8.012-14.405.768-1.144 3.96-5.744 1.7 1.191-4.658 6.701-1.77-1.004Zm9.316-13.658 2.655-3.502c.815-1.121 1.7-2.148 2.585-3.175l1.56 1.354c-.862 1.004-1.7 1.984-2.492 3.012l-2.329 3.478-1.98-1.167Zm10.364-12.958 5.333-6.28 1.584 1.331-5.357 6.28-1.56-1.331Zm11.132-12.28c1.956-1.914 3.983-3.805 6.009-5.697l1.397 1.541a229.252 229.252 0 0 0-5.962 5.627l-1.444-1.471Zm12.227-11.183a283.613 283.613 0 0 1 6.382-5.276l1.281 1.61a359.727 359.727 0 0 0-6.335 5.23l-1.328-1.564Zm13.182-10.343a234.398 234.398 0 0 1 6.708-4.832l1.164 1.704c-2.329 1.564-4.448 3.152-6.637 4.67l-1.235-1.541Zm13.578-9.338a224.964 224.964 0 0 1 5.893-3.689l1.164-.654 1.048 1.775-1.164.653c-1.957 1.168-3.89 2.335-5.823 3.642l-1.118-1.727Zm14.37-8.382a313.643 313.643 0 0 1 7.43-3.665l.885 1.891c-2.469 1.144-4.938 2.335-7.36 3.619l-.955-1.845Zm14.976-7.004c2.538-1.097 5.1-2.124 7.662-3.151l.745 1.937a236.303 236.303 0 0 0-7.592 3.129l-.815-1.915Zm15.301-6.116c2.608-.91 5.217-1.798 7.825-2.639l.629 1.985a203.38 203.38 0 0 0-7.779 2.615l-.675-1.961Zm15.767-5.02 3.866-1.05 4.216-.818.396 2.008-4.146.817-3.796 1.05-.536-2.007Zm16.187-3.455 2.329-.467 2.515-.467a202.73 202.73 0 0 1 3.307-.654l.326 2.055c-1.071.163-2.142.397-3.214.607l-2.538.49-2.329.467-.396-2.031Zm16.303-2.335v1.027-1.05l8.174-.77.187 2.054-8.129.77-.232-2.03Zm16.489-1.284h8.244v2.078h-8.244V37.05Zm16.489 0c1.557 0 3.112.093 4.658.28l3.54.374-.21 2.054-3.586-.373a34.844 34.844 0 0 0-4.518-.257l.116-2.078Zm16.489 1.518 8.291.933-.419 2.032-.512-.117-7.569-.794.209-2.054Zm16.303 2.614 8.058 1.681-.419 2.008-8.081-1.68.442-2.009Zm13.159 4.763.629-1.96 7.849 2.497-.606 1.961-7.872-2.498Zm15.721 4.996.605-1.96 5.776 1.844 2.096.91-.792 1.891-2.026-.864-5.659-1.82Zm15.231 5.954.815-1.891 7.57 3.362-.815 1.914-7.57-3.385Zm14.789 7.004 1.025-1.774c1.211.677 2.329 1.377 3.657 2.03l3.54 1.962-1.002 1.82-3.517-1.96c-1.257-.607-2.492-1.424-3.703-2.125v.047Zm14.417 8.078.978-1.821 1.164.77 5.707 3.97-1.165 1.703-6.684-4.622Zm13.438 9.338 1.188-1.704 3.493 2.452c1.095.817 2.12 1.704 3.168 2.591l-1.351 1.564c-1.002-.864-1.98-1.704-3.028-2.498l-3.47-2.405Zm12.763 10.25L417.518 90l6.358 5.3-1.351 1.588-6.358-5.323Zm12.111 11.043 1.467-1.448a201.427 201.427 0 0 1 5.683 6.047l-1.514 1.377a201.7 201.7 0 0 0-5.636-6.023v.047Zm11.062 12.14 1.561-1.331a232.167 232.167 0 0 1 5.263 6.397l-1.607 1.284c-1.7-2.195-3.447-4.366-5.217-6.397v.047Zm10.155 12.817 1.653-1.237c1.654 2.194 3.261 4.459 4.845 6.724l-1.701 1.19a100.263 100.263 0 0 0-4.797-6.677Zm9.316 13.494 1.723-1.12a223.002 223.002 0 0 1 3.657 5.907l.652 1.167-1.77 1.05-.652-1.167c-1.048-1.961-2.26-3.899-3.494-5.837h-.116Zm8.128 14.242 1.84-.934c1.257 2.335 2.492 4.926 3.656 7.424l-1.863.887c-1.048-2.474-2.259-4.949-3.517-7.377h-.116Zm6.987 14.872 1.886-.817a238.979 238.979 0 0 1 3.144 7.681l-1.909.747c-.862-2.545-1.933-5.02-2.981-7.611h-.14Zm5.985 15.315 1.933-.677c.932 2.615 1.794 5.23 2.632 7.845l-1.956.63c-.699-2.592-1.561-5.206-2.469-7.798h-.14Zm4.961 15.689 1.98-.56c.372 1.284.722 2.591 1.071 3.875l.815 4.226-2.026.397-.815-4.156c-.163-1.214-.536-2.498-.885-3.782h-.14Zm3.563 15.946 2.027-.374.442 2.335c.155.872.318 1.712.489 2.521.233 1.121.443 2.335.629 3.316l-2.026.35a80.653 80.653 0 0 0-.629-3.245l-.489-2.568-.443-2.335Zm2.329 16.343 2.05-.211.768 8.172-2.049.186-.769-8.147Zm1.258 16.342h2.05v8.265h-2.05v-8.265Zm0 16.506h2.05c.007 1.56-.079 3.12-.257 4.67l-.372 3.572-2.05-.234.373-3.595c.175-1.465.268-2.938.279-4.413h-.023Zm-1.514 16.343 2.05.21-.932 8.311-2.003-.42v-.49l.885-7.611Zm-2.562 16.179 2.027.444-1.701 8.078-2.003-.421 1.677-8.101ZM224.841 469.128l8.058 1.681-.419 2.031-8.059-1.705.42-2.007Zm16.116 3.362h.513l7.569.793-.21 2.055-8.268-.911.396-1.937Zm16.303 1.751 3.587.396a40.04 40.04 0 0 0 4.658.257v2.055a38.557 38.557 0 0 1-4.658-.257l-3.564-.374-.023-2.077Zm16.303.677h8.245v2.054h-8.222l-.023-2.054Zm16.303-.467 8.151-.771.21 2.055v-1.028 1.028l-8.175.77-.186-2.054Zm16.303-1.611 3.237-.631 2.539-.49 2.329-.444.396 2.032-2.329.443-2.516.491a76.051 76.051 0 0 1-3.307.63l-.349-2.031Zm16.14-3.152 4.169-.817c1.211-.304 2.492-.654 3.773-1.027l.558 1.984-3.889 1.074-4.215.817-.396-2.031Zm15.813-4.202a255.235 255.235 0 0 0 7.756-2.615l.699 1.937c-2.609.934-5.24 1.798-7.849 2.639l-.606-1.961Zm15.465-5.51a234.491 234.491 0 0 0 7.569-3.105l.815 1.891a236.99 236.99 0 0 1-7.639 3.151l-.745-1.937Zm15.068-6.491c2.469-1.167 4.915-2.334 7.36-3.618l.932 1.821a198.79 198.79 0 0 1-7.43 3.665l-.862-1.868Zm14.58-7.517 1.164-.654c1.934-1.167 3.89-2.335 5.8-3.619l1.118 1.728a165.073 165.073 0 0 1-5.893 3.665l-1.141.677-1.048-1.797Zm13.788-8.849c2.329-1.564 4.471-3.175 6.66-4.809l1.235 1.658c-2.329 1.657-4.449 3.268-6.731 4.856l-1.164-1.705Zm13.158-9.829a227.232 227.232 0 0 0 6.312-5.229l1.351 1.564a230.13 230.13 0 0 1-6.382 5.276l-1.281-1.611Zm12.46-10.669a196.31 196.31 0 0 0 5.963-5.65l1.444 1.494a233.923 233.923 0 0 1-6.009 5.674l-1.398-1.518Zm11.645-11.487 5.334-6.303 1.583 1.354-5.356 6.28-1.561-1.331Zm10.69-12.583c.862-1.004 1.701-2.008 2.469-3.035l2.329-3.479 1.677 1.191-2.329 3.502c-.838 1.097-1.7 2.124-2.585 3.175l-1.561-1.354Zm9.596-13.285 4.658-6.7 1.793.98-.745 1.168-3.936 5.836-1.77-1.284Zm8.64-14.008 1.957-3.525a80.003 80.003 0 0 1 2.049-3.689l1.794 1.004c-.676 1.214-1.375 2.335-2.027 3.666l-1.979 3.548-1.794-1.004Zm7.686-14.475 3.261-7.587 1.886.817-3.261 7.588-1.886-.818Zm6.544-15.058.862-2.031 1.794-5.674 1.979.631-1.84 5.766-.908 2.102-1.887-.794Zm5.148-15.572 2.492-7.892 1.956.631-2.469 7.868-1.979-.607ZM81.631 389.399c.087-.379.31-.712.629-.934.35-.21.764-.284 1.164-.21.413.092.773.344 1.002.7l.908 1.424c.186.257.326.514.513.771.186.256.628.934.978 1.494a1.567 1.567 0 0 1-.396 2.148 1.534 1.534 0 0 1-2.12-.374l-1.094-1.657a4.855 4.855 0 0 0-.466-.677l-.932-1.471a1.5 1.5 0 0 1-.186-1.214Zm23.173 28.506c.06-.286.207-.547.42-.747.301-.273.689-.43 1.094-.444a1.553 1.553 0 0 1 1.095.514 1.545 1.545 0 0 1-.035 2.183 1.539 1.539 0 0 1-2.178-.035 1.593 1.593 0 0 1-.396-1.471Zm29.416 26.265c.059-.175.129-.347.209-.514.26-.32.622-.543 1.025-.63.396-.066.802.017 1.141.233l1.141.771 11.948 8.288a48.048 48.048 0 0 0 5.636 3.502h.233l5.66 3.198.395.187 4.309 2.335c2.329 1.354 4.658 2.708 6.987 3.805 2.329 1.098 5.147 2.195 7.499 3.246l3.913 1.68 8.478 3.689a98.878 98.878 0 0 0 4.797 1.541l2.329.747a498.963 498.963 0 0 0 6.335 2.055 1.516 1.516 0 0 1 1.025 1.844 1.516 1.516 0 0 1-1.933.981l-6.358-2.008-2.329-.724c-1.514-.443-3.238-.98-5.124-1.634l-5.986-2.592-13.974-6.023c-2.492-1.214-4.89-2.615-7.452-4.062-1.351-.724-2.725-1.518-4.146-2.335l-3.214-1.844-3.051-1.705a43.244 43.244 0 0 1-5.939-3.642l-8.57-5.977-3.284-2.334c-.35-.257-.769-.491-1.165-.771a1.543 1.543 0 0 1-.466-1.33l-.069.023ZM47.954 197.419a236.577 236.577 0 0 1 23.64-57.759 1.323 1.323 0 0 1 .907-.701 1.49 1.49 0 0 1 1.188.14 1.54 1.54 0 0 1 .56 2.102 233.107 233.107 0 0 0-23.29 56.919v.327a213.393 213.393 0 0 0-3.261 14.428v.303c0 .491-.233.957-.303 1.448a1.54 1.54 0 0 1-1.817 1.237 1.378 1.378 0 0 1-.978-.654 1.658 1.658 0 0 1-.256-1.167c0-.537.256-1.097.35-1.658.838-4.996 1.886-9.992 3.26-14.965Zm-4.89 23.65a1.55 1.55 0 0 1 1.827-1.202 1.546 1.546 0 0 1 1.2 1.833 1.542 1.542 0 0 1-1.724 1.237 1.605 1.605 0 0 1-1.304-1.704.306.306 0 0 1 0-.164Zm-2.68 32.219a1.537 1.537 0 0 1 1.538-1.144c.418.01.816.177 1.118.467.27.301.42.692.42 1.097a1.57 1.57 0 0 1-.909 1.617 1.557 1.557 0 0 1-2.131-.962 1.572 1.572 0 0 1-.059-.655.7.7 0 0 1 .024-.42Zm2.702 39.409a1.494 1.494 0 0 1 1.281-1.097c.389-.067.788.016 1.118.233.328.254.551.62.63 1.027.185 1.238.395 2.335.581 3.642A230.357 230.357 0 0 0 63 350.807l1.025 2.475c2.05 4.202 3.96 7.821 5.496 10.739l1.538 2.942a1.614 1.614 0 0 1-.7 2.031 1.584 1.584 0 0 1-2.096-.677c-.442-.887-.954-1.845-1.49-2.872-1.56-2.965-3.517-6.63-5.613-10.996-.349-.911-.722-1.775-1.094-2.685a230.807 230.807 0 0 1-16.443-54.771 72.894 72.894 0 0 1-.605-3.712 1.92 1.92 0 0 1 .07-.584Zm50.819-185.116a3.06 3.06 0 0 1 .326-.607 1.537 1.537 0 0 1 1.048-.537c.41-.027.817.097 1.141.351a1.591 1.591 0 0 1 .186 2.171 1.353 1.353 0 0 1-1.024.537 1.4 1.4 0 0 1-1.141-.327 1.59 1.59 0 0 1-.536-1.588Zm22.312-23.346a1.4 1.4 0 0 1 .442-.77 1.583 1.583 0 0 1 2.189 0 1.612 1.612 0 0 1 0 2.194 1.558 1.558 0 0 1-2.189 0 1.469 1.469 0 0 1-.442-1.471v.047Zm5.38-4.67c.07-.312.232-.597.465-.817a232.533 232.533 0 0 1 30.51-22.25 227.83 227.83 0 0 1 37.264-18.49 1.514 1.514 0 0 1 1.188 0 1.473 1.473 0 0 1 .792.84 1.591 1.591 0 0 1-.862 2.032 229.279 229.279 0 0 0-66.865 40.086 1.451 1.451 0 0 1-1.118.35 1.404 1.404 0 0 1-1.048-.537 1.442 1.442 0 0 1-.326-1.4v.186Zm-50.05 294.168a1.583 1.583 0 0 1 .791-.98 1.526 1.526 0 0 1 1.177-.094 1.526 1.526 0 0 1 .896.771 1.59 1.59 0 0 1-.675 2.077 1.6 1.6 0 0 1-2.05-.63 1.496 1.496 0 0 1-.14-1.191v.047ZM226.82 27.806a1.47 1.47 0 0 1 1.165-1.097 1.53 1.53 0 0 1 1.586.637 1.548 1.548 0 0 1 .017 1.713 1.533 1.533 0 0 1-2.363.256 1.543 1.543 0 0 1-.428-.785 1.283 1.283 0 0 1 .023-.724Zm31.954-4.32a1.606 1.606 0 0 1 2.515-.793 1.559 1.559 0 0 1 .453 1.657 1.562 1.562 0 0 1-1.338 1.074 1.698 1.698 0 0 1-1.071-.373 1.656 1.656 0 0 1-.559-1.074 1.916 1.916 0 0 1 0-.49Zm7.15-.326a1.566 1.566 0 0 1 1.537-1.144h13.834a78.627 78.627 0 0 1 10.178.467l16.606 1.75c1.568.109 3.126.343 4.658.701l.628.117c.489.14.746.14.862.187.398.098.746.339.978.677a1.453 1.453 0 0 1 .187 1.167 1.529 1.529 0 0 1-.649.97 1.513 1.513 0 0 1-1.145.22l-1.514-.256a20.228 20.228 0 0 0-4.145-.63c-3.144-.327-7.5-.77-12.973-1.378l-3.842-.327a61.518 61.518 0 0 0-10.038-.467h-13.625a1.49 1.49 0 0 1-1.514-1.54 1.006 1.006 0 0 1-.023-.514Zm75.948 10.482a1.524 1.524 0 0 1 .754-.913 1.51 1.51 0 0 1 1.179-.09l.582.163 5.776 1.868 2.329.7c1.56.444 3.237.98 5.101 1.658l9.129 3.945 5.613 2.452 5.217 2.334c2.492 1.191 4.937 2.615 7.499 4.063 1.328.723 2.702 1.517 4.099 2.334l6.056 3.386.256.14a49.291 49.291 0 0 1 5.939 3.665l11.808 8.218c.402.243.791.508 1.164.794a1.613 1.613 0 0 1 .419 2.148 1.627 1.627 0 0 1-2.166.42c-.349-.28-.675-.49-1.071-.77l-.652-.42c-3.796-2.615-7.569-5.277-11.342-7.892a46.88 46.88 0 0 0-5.753-3.572h-.209l-3.214-1.82-2.795-1.542-4.309-2.334c-2.492-1.378-4.774-2.709-6.987-3.83l-11.365-4.902-8.594-3.992a80.837 80.837 0 0 0-4.821-1.565l-2.329-.747c-4.006-1.307-6.312-1.984-6.335-2.008a1.589 1.589 0 0 1-.978-1.891Zm99.611 61.659c.07-.263.207-.504.396-.7a1.459 1.459 0 0 1 1.094-.444 1.441 1.441 0 0 1 1.118.467 1.568 1.568 0 0 1 0 2.194c-.295.282-.687.44-1.095.444a1.376 1.376 0 0 1-1.048-.49 1.467 1.467 0 0 1-.465-1.471Zm20.774 24.747c.101-.36.323-.673.629-.887a1.561 1.561 0 0 1 2.143.397c.419.56.745 1.097 1.048 1.541.15.265.313.522.489.77l.931 1.471a1.613 1.613 0 0 1-.442 2.171 1.579 1.579 0 0 1-2.143-.49l-.931-1.447c-.14-.234-.326-.514-.513-.771-.186-.257-.605-.957-.978-1.494a1.49 1.49 0 0 1-.233-1.261Zm-228.24 366.753a1.511 1.511 0 0 1 1.793-1.167l1.584.327a22.69 22.69 0 0 0 4.122.63l16.722 1.728c3.26.398 6.544.57 9.828.513h13.835a1.406 1.406 0 0 1 1.071.444 1.541 1.541 0 0 1-1.095 2.661h-13.974a66.072 66.072 0 0 1-10.061-.467l-16.606-1.751a30.5 30.5 0 0 1-4.657-.677l-.676-.14-.768-.163a1.506 1.506 0 0 1-.973-.675 1.513 1.513 0 0 1-.192-1.17l.047-.093Zm53.566 2.872a1.496 1.496 0 0 1 1.351-1.121c.204-.031.413-.016.611.044.197.061.379.166.53.306.16.131.29.295.382.48.093.185.145.387.154.594a1.541 1.541 0 0 1-1.397 1.634 1.587 1.587 0 0 1-1.701-1.4 2.148 2.148 0 0 1 .047-.537h.023Zm31.954-4.343a1.58 1.58 0 0 1 .949-1.011 1.58 1.58 0 0 1 1.38.124 1.44 1.44 0 0 1 .629.981 1.563 1.563 0 0 1-2.329 1.611 1.444 1.444 0 0 1-.629-.981 1.897 1.897 0 0 1-.023-.724h.023Zm37.869-11.066a1.487 1.487 0 0 1 .955-1.027 227.198 227.198 0 0 0 36.798-18.281 223.632 223.632 0 0 0 30.091-21.969 1.554 1.554 0 0 1 1.829-.408 1.563 1.563 0 0 1 .901 1.648 1.56 1.56 0 0 1-.704 1.095 234.184 234.184 0 0 1-67.843 40.716 1.485 1.485 0 0 1-1.665-.352 1.472 1.472 0 0 1-.315-.512 1.352 1.352 0 0 1-.07-.91h.023Zm117.405-334.768a1.534 1.534 0 0 1 .768-1.004 1.886 1.886 0 0 1 1.188 0c.384.144.7.427.885.794a1.589 1.589 0 0 1-.722 2.031 1.497 1.497 0 0 1-1.174.113 1.505 1.505 0 0 1-.899-.766 1.64 1.64 0 0 1-.046-1.168Zm3.307 6.374c.113-.423.39-.784.768-1.004a1.558 1.558 0 0 1 2.096.677c.466.957 1.025 1.938 1.607 3.082 1.537 2.918 3.447 6.537 5.497 10.786.372.84.698 1.704 1.048 2.615a230.771 230.771 0 0 1 16.536 54.841c.186 1.191.372 2.335.559 3.689a1.542 1.542 0 0 1-1.286 1.661 1.536 1.536 0 0 1-1.742-1.171 130.972 130.972 0 0 0-.606-3.665 226.81 226.81 0 0 0-16.303-54.235l-1.001-2.498c-2.05-4.249-3.983-7.914-5.52-10.832l-1.514-2.732a1.639 1.639 0 0 1-.139-1.214Zm-47.954 283.125c.069-.288.223-.549.442-.747a1.535 1.535 0 0 1 2.143 0 1.66 1.66 0 0 1 0 2.218 1.558 1.558 0 0 1-2.189 0 1.54 1.54 0 0 1-.396-1.471Zm22.242-23.347c.062-.219.165-.425.302-.607a1.653 1.653 0 0 1 1.072-.56 1.38 1.38 0 0 1 .588.065c.189.065.362.17.506.308a1.534 1.534 0 0 1 .566 1.053 1.539 1.539 0 0 1-.356 1.142 1.49 1.49 0 0 1-1.025.49 1.458 1.458 0 0 1-1.094-.327 1.492 1.492 0 0 1-.559-1.611v.047Zm22.521-32.452c.036-.136.083-.268.14-.397a230.968 230.968 0 0 0 26.62-71.627c.116-.56.233-1.167.326-1.751.111-.369.353-.684.68-.885.328-.2.718-.273 1.096-.204.377.07.716.276.952.58.235.305.35.685.323 1.069 0 .304-.116.607-.186.887-.07.28-.117.607-.14.888a235.813 235.813 0 0 1-26.97 72.654 1.534 1.534 0 0 1-2.119.561 1.492 1.492 0 0 1-.7-.776 1.492 1.492 0 0 1-.022-1.045v.046Zm31.069-113.231a1.489 1.489 0 0 1 1.49-1.191 1.53 1.53 0 0 1 1.089.476 1.54 1.54 0 0 1 .425 1.112 1.527 1.527 0 0 1-.46 1.09 1.503 1.503 0 0 1-1.1.427 1.535 1.535 0 0 1-1.514-1.54.947.947 0 0 1 .07-.421v.047Zm-2.725 32.242a1.54 1.54 0 0 1 1.235-1.148 1.535 1.535 0 0 1 1.543.676 1.543 1.543 0 0 1-1.544 2.363 1.545 1.545 0 0 1-1.029-.676 1.531 1.531 0 0 1-.205-1.215Z" style="mix-blend-mode:screen"/></g><defs><clipPath id="a"><path fill="#fff" d="M0 0h509v526H0z"/></clipPath></defs></svg>