<svg xmlns="http://www.w3.org/2000/svg" width="38" height="35" fill="none"><g clip-path="url(#a)" fill="#fff"><path d="M5.01 2.642a7.316 7.316 0 0 0-1.15.416c-.84.4-1.76 1.314-2.175 2.137-.572 1.15-.535.498-.535 10.168 0 9.671-.037 9.018.535 10.168.415.824 1.336 1.737 2.174 2.138.587.282 1.522.534 1.96.534h.193l.015 3.6.022 3.592 5.158-3.592 5.158-3.592 7.986-.008c5.396 0 8.127-.03 8.424-.081 1.752-.32 3.17-1.544 3.8-3.273l.2-.542V6.42l-.2-.542c-.542-1.499-1.603-2.553-3.095-3.087l-.638-.23-13.656-.015c-11.838-.008-13.723 0-14.176.096Zm27.884 2.242c.6.245 1.187.801 1.484 1.41l.245.497.022 8.313c.015 6.182 0 8.416-.067 8.72a2.766 2.766 0 0 1-2.211 2.153c-.252.044-3.347.074-8.558.074h-8.156l-3.726 2.598-3.726 2.59-.022-2.59-.015-2.598H7.103c-1.692 0-2.294-.178-2.984-.868-.43-.424-.69-.965-.787-1.604-.081-.6-.081-15.83 0-16.432.179-1.187.973-2.078 2.123-2.367.29-.074 3.266-.09 13.693-.082l13.323.015.423.17Z"/><path d="M10.688 10.947v1.076h16.625V9.871H10.686v1.076Zm0 4.453v1.077h16.625v-2.153H10.686V15.4Zm0 4.454v1.076h16.625v-2.153H10.686v1.076Z"/></g><defs><clipPath id="a"><path fill="#0d0131" d="M0 0h38v35H0z"/></clipPath></defs></svg>