<svg width="64" height="64" fill="#4ca35a" xmlns="http://www.w3.org/2000/svg"><path d="M20.308 2.001c-.225.226-.25.414-.25 2.234v1.971L15.263 7.7c-7.783 2.422-7.255 2.209-7.255 3.062 0 .239 2.71 9.088 6.025 19.682l6.025 19.242v5.912c0 5.737.012 5.913.25 6.151.252.251.415.251 17.825.251s17.572 0 17.823-.251c.252-.251.252-.414.252-13.054 0-12.176-.013-12.841-.239-13.469-.126-.351-1.933-3.84-4.017-7.732l-3.778-7.092v-9.075c0-8.912 0-9.075-.25-9.326-.252-.251-.415-.251-13.808-.251s-13.556 0-13.808.251Zm25.858 21.84v20.084h-.678c-.64 0-.715-.038-1.004-.414l-.327-.427V26.189c0-19.745.239-17.41-1.757-17.41h-1.255V7.524c0-1.946.74-1.757-7.03-1.757-7.769 0-7.028-.189-7.028 1.757v1.255H25.83c-1.092 0-1.292.038-1.506.251-.25.251-.25.414-.25 22.845 0 22.43 0 22.594.25 22.845.214.213.414.25 1.506.25h1.256v1.256c0 1.933-.653 1.757 6.527 1.757h6.025l.2.327c.126.175.578.627 1.017 1.004l.804.678H22.066V3.758h24.1v20.084Zm-7.03-14.81c0 1.091.038 1.292.252 1.505.213.214.414.252 1.506.252h1.255v14.685c0 8.071-.025 14.686-.05 14.686s-.766-.991-1.644-2.196l-1.594-2.21.376-.59c.628-.966.904-1.995.904-3.288 0-1.82-.59-3.238-1.858-4.418-1.217-1.143-2.435-1.607-4.18-1.607-1.82 0-3.226.59-4.405 1.858-1.143 1.217-1.607 2.435-1.607 4.167 0 1.77.477 2.962 1.67 4.23l.614.653-.2.602c-.44 1.381-.364 2.737.225 3.93.164.313 1.733 2.71 3.503 5.321 2.836 4.193 3.225 4.82 3.225 5.247 0 .766.364 2.347.754 3.276l.35.841h-9.137V54.72c0-1.707-.05-1.758-1.757-1.758h-1.256V10.788h1.256c1.707 0 1.757-.05 1.757-1.758V7.775h10.042V9.03Zm-19.079.439v.928l-1.845.578c-1.167.364-1.933.678-2.07.84-.302.34-.29 1.018.024 1.934.138.402.239.79.201.866-.025.088-.49.276-1.017.427-1.104.339-1.443.602-1.443 1.154 0 .226 1.38 4.82 3.075 10.23l3.076 9.829-.026 3-.037 3.012-4.808-15.376c-2.648-8.448-4.795-15.389-4.77-15.402.076-.062 9.327-2.95 9.49-2.95.1-.012.15.252.15.93Zm0 11.321-.012 8.134-1.87-5.95c-1.03-3.276-1.858-5.974-1.846-5.974.013-.013.528-.176 1.13-.364.992-.302 1.117-.377 1.306-.766.188-.402.188-.464-.138-1.506-.189-.603-.327-1.105-.302-1.13.05-.037 1.52-.54 1.645-.552.05-.013.088 3.64.088 8.108ZM51.1 30.508c2.046 3.84 2.887 5.523 2.975 6 .075.427.125 4.908.125 12.075v11.41h-2.85c-1.58 0-3.35-.05-3.94-.113-2.059-.226-3.841-1.03-5.335-2.435-1.707-1.595-2.598-3.452-2.8-5.8l-.1-1.13-3.477-5.133c-2.07-3.075-3.527-5.347-3.602-5.648-.188-.69.025-1.733.49-2.398.2-.288.614-.64 1.029-.853.602-.314.79-.352 1.531-.314 1.356.075 1.481.2 5.084 5.184 1.744 2.397 3.238 4.418 3.326 4.48.088.051 1.054.101 2.146.101 1.808 0 1.996-.025 2.222-.25.251-.252.251-.415.251-10.444 0-5.598.025-10.155.038-10.13.025.025 1.33 2.448 2.887 5.398Zm-15.263-2.134c.89.427 1.456 1.017 1.895 1.97.263.59.301.804.25 1.708-.037.703-.137 1.18-.325 1.531-.402.778-.503.816-1.268.59-.465-.138-1.004-.176-1.72-.138-.891.05-1.18.126-1.996.527l-.966.477-.352-.339c-.677-.652-1.041-1.531-1.104-2.648-.05-.892-.013-1.117.25-1.707.415-.892.942-1.482 1.733-1.908 1.18-.64 2.335-.666 3.603-.063Z"/></svg>