<svg width="64" height="64" fill="#4ca35a" xmlns="http://www.w3.org/2000/svg"><path d="M33.811 2.02c-.092.023-.568.093-1.043.175-1.762.282-5.958 1.513-6.885 2.017-.151.082-.719.13-1.472.106-3.28-.07-5.437 1.384-6.132 4.15-.22.857-.232 1.303-.232 6.24v5.312l-.336.468c-.464.646-.626 1.36-.568 2.428.058 1.055.324 1.677 1.02 2.38.742.75 1.286.974 2.503 1.032l1.067.047.127.845c.267 1.618 1.113 3.47 2.18 4.796l.498.61v4.349l-2.99 1.725-2.98 1.723-3.42.81c-1.877.445-3.697.926-4.033 1.055-2.098.844-3.953 2.838-4.73 5.066l-.336.985-.034 6.59c-.035 6.496-.024 6.602.208 6.837.232.234.255.234 25.734.234 25.478 0 25.501 0 25.733-.234.232-.235.244-.34.209-6.837l-.035-6.59-.336-.985c-.812-2.334-2.77-4.362-4.996-5.16-.383-.14-2.156-.598-3.941-1.008l-3.246-.763-2.979-1.723-2.99-1.724v-4.362l.382-.47c1.217-1.453 2.11-3.412 2.341-5.182l.082-.61h.857c1.16 0 1.97-.317 2.713-1.056 1.39-1.419 1.425-3.94.058-5.323l-.51-.516.15-.915c.29-1.677.452-4.14.371-5.723-.197-3.881-1.112-6.39-3.037-8.349-.776-.797-1.113-1.043-2.028-1.489-1.646-.797-2.26-.926-4.683-.973-1.148-.012-2.168-.012-2.26.011ZM38.31 4.2c1.124.282 1.68.552 2.515 1.197 2.133 1.63 3.188 4.82 3.037 9.111-.034.997-.15 2.38-.266 3.072l-.197 1.267h-1.241v-2.58c0-2.427-.011-2.591-.231-2.814-.151-.153-.383-.235-.673-.235-.243 0-2.179.375-4.3.821-2.122.457-4.44.891-5.135.962-2.4.234-5.379-.27-7.744-1.302-1.205-.54-1.738-.598-2.086-.246-.22.223-.232.387-.232 2.814v2.58h-1.855v-3.788c.012-3.717.105-5.476.348-6.32.244-.845.823-1.525 1.681-1.97l.788-.41 1.635-.013h1.634l1.252-.492c4.486-1.77 8.346-2.345 11.07-1.653Zm1.994 16.019c-.012 5.406-.081 6.508-.522 7.833-.591 1.806-1.982 3.565-3.593 4.538-2.006 1.231-4.59 1.501-6.84.739-3.117-1.055-5.308-3.87-5.633-7.27-.058-.575-.104-3.143-.104-5.7v-4.631l1.136.375c2.979 1.008 6.027 1.208 9.157.621.684-.117 2.284-.457 3.559-.738 1.275-.282 2.434-.516 2.585-.528l.255-.012v4.773ZM21.756 22.61v1.9l-.719-.082c-1.24-.13-1.947-.786-1.947-1.818 0-1.15.823-1.841 2.237-1.876l.43-.012v1.888Zm22.187-1.56c.556.329.88.903.88 1.548 0 1.044-.707 1.7-1.947 1.83l-.719.082v-3.823l.719.082c.383.035.87.164 1.067.281Zm-16.68 13.58c.382.21 1.135.516 1.68.703.927.305 1.113.328 2.956.34 2.434 0 3.072-.164 5.54-1.442.047-.024.082.621.082 1.43v1.478l-2.736 3.166c-1.507 1.747-2.782 3.166-2.828 3.166-.047 0-1.322-1.419-2.829-3.166l-2.735-3.166v-1.477c0-.81.034-1.455.092-1.431.047.023.395.2.777.399Zm.555 7.223c1.391 1.618 2.493 2.979 2.435 3.037-.128.13-4.579 2.697-4.614 2.662-.011-.023-1.124-1.313-2.469-2.873-1.344-1.56-2.469-2.896-2.48-2.967-.024-.105 4.323-2.79 4.544-2.79.034-.012 1.193 1.313 2.584 2.931ZM40.894 40.2c1.24.715 2.295 1.336 2.341 1.383.081.082-2.19 2.791-4.625 5.547l-.382.434-2.237-1.29c-1.23-.715-2.284-1.337-2.33-1.384-.058-.058 1.043-1.419 2.434-3.037 1.39-1.618 2.538-2.943 2.538-2.943.012-.012 1.032.574 2.26 1.29Zm-19.207 5.851c1.646 1.9 3.071 3.53 3.176 3.6.347.282.95.176 1.831-.328l.858-.47.104.27c.058.153.383.985.73 1.865l.638 1.595-1.646 3.74-1.646 3.741-4.764.035-4.776.024v-2.58c0-2.427-.012-2.592-.232-2.814-.15-.153-.382-.235-.695-.235-.313 0-.545.082-.696.235-.22.222-.232.387-.232 2.814v2.58H7.824l.046-5.488c.058-6.04.07-6.145.823-7.575.209-.4.719-1.068 1.136-1.49 1.148-1.172 1.89-1.489 5.437-2.322 1.623-.387 3.06-.691 3.2-.68.161.012 1.263 1.196 3.221 3.483Zm26.915-2.814c3.605.844 4.336 1.16 5.483 2.333.417.422.928 1.09 1.136 1.49.754 1.43.765 1.536.823 7.575l.047 5.488h-6.516v-2.58c0-2.427-.012-2.592-.232-2.814-.313-.317-1.078-.317-1.39 0-.221.222-.233.387-.233 2.814v2.58l-4.775-.024-4.765-.035-1.646-3.74-1.646-3.741.638-1.595c.348-.88.672-1.712.73-1.865l.105-.27.857.47c.568.328.997.48 1.287.48.51 0 .185.329 3.976-4.069 1.507-1.758 2.828-3.19 2.933-3.2.104 0 1.541.316 3.187.703ZM33.29 47.06c.73.422 1.333.785 1.333.797 0 .012-.336.856-.742 1.888l-.742 1.876h-2.365l-.742-1.864c-.405-1.032-.707-1.9-.672-1.935.058-.07 2.504-1.525 2.573-1.525.012-.011.627.34 1.357.763Zm1.286 9.78 1.415 3.224-2.017.035a226.02 226.02 0 0 1-4.034 0l-2.017-.035 1.217-2.756c.66-1.512 1.31-2.978 1.426-3.26l.22-.504 1.182.035 1.183.036 1.425 3.224Z"/></svg>