<svg width="64" height="64" fill="#4ca35a" xmlns="http://www.w3.org/2000/svg"><g clip-path="url(#a)"><path d="M23.81.191c-1.414.26-3.165.856-4.552 1.556-3.54 1.803-6.51 5.057-7.91 8.7l-.363.921-2.152.052c-2.075.04-2.178.052-2.93.415-.999.493-1.984 1.478-2.477 2.477l-.376.778-.039 18.658c-.026 18.348-.026 18.66.233 19.774.156.636.532 1.66.908 2.412 1.4 2.827 3.721 4.797 6.872 5.848l1.102.376h15.69c17.79 0 16.247.09 18.671-1.102 2.308-1.141 4.033-2.892 5.187-5.252.934-1.919.998-2.295 1.063-5.925l.065-3.216h.57c.727 0 2.01-.428 2.801-.92.726-.467 1.634-1.414 2.075-2.192.739-1.27.752-1.452.752-8.182 0-5.964-.013-6.224-.272-6.924-.169-.467-.493-.946-.895-1.361-.92-.921-1.699-1.167-3.566-1.167h-1.49v-3.28c0-2.853-.04-3.424-.26-4.293-.817-3.215-3.475-5.874-6.69-6.69a9.067 9.067 0 0 0-2.063-.26h-1.063l-.363-.946c-1.4-3.644-4.357-6.898-7.922-8.714A17.66 17.66 0 0 0 29.748.178c-1.414-.246-4.552-.233-5.939.013Zm5.95 2.282c5.576 1.103 10.05 5.589 11.217 11.255.246 1.167.272 1.647.22 3.371-.09 2.724-.039 2.594-1.219 2.594h-.96l.105-.623c.051-.337.103-1.543.103-2.684 0-1.763-.052-2.23-.298-3.099-1.297-4.512-4.85-7.91-9.336-8.895-1.53-.337-3.968-.337-5.498 0-4.486.986-8.039 4.383-9.336 8.895-.246.87-.298 1.336-.298 3.1 0 1.14.052 2.346.104 2.683l.104.623h-1.945l-.104-.493c-.052-.26-.104-1.504-.104-2.749.013-1.906.052-2.438.299-3.306.998-3.696 3.02-6.535 6.094-8.584 3.215-2.14 6.963-2.866 10.853-2.088Zm-.505 4.124c2.1.531 4.162 1.815 5.524 3.449.804.972 1.711 2.8 2.048 4.123.325 1.27.35 3.345.052 4.63l-.207.894h-4.616l-.052-.895c-.039-.726-.13-1.011-.454-1.556l-.415-.661.415-.674c.363-.584.415-.804.454-1.725.039-.856 0-1.193-.208-1.647a3.723 3.723 0 0 0-1.646-1.802c-.558-.298-.584-.337-.584-.882 0-.946-.739-1.439-1.62-1.102-.286.117-.584.74-.584 1.219 0 .363-.026.389-.519.389-.492 0-.518-.026-.518-.389 0-.48-.299-1.102-.584-1.219-.869-.324-1.62.169-1.62 1.05v.558h-.973c-1.18 0-1.491.22-1.491 1.037 0 .778.324 1.038 1.296 1.038h.778v7.26h-6.716l-.22-.933c-.26-1.18-.26-3.164 0-4.395.272-1.245 1.309-3.346 2.113-4.318 1.348-1.621 3.397-2.905 5.472-3.45 1.348-.336 3.5-.35 4.875 0Zm-.57 5.964a1.469 1.469 0 0 1 0 2.853c-.26.065-1.025.13-1.673.13h-1.206v-3.112h1.206c.648 0 1.413.064 1.672.13Zm-18.322 1.517c-.052.35-.104 1.466-.104 2.503 0 1.037.052 2.152.104 2.49l.104.622H9.326c-1.504 0-2.347-.195-2.996-.687-1.387-1.064-1.543-3.203-.324-4.474.765-.804 1.478-1.024 3.346-1.05l1.115-.013-.104.61Zm34.698-.324c1.517.324 3.112 1.362 4.072 2.658 1.166 1.556 1.426 2.503 1.53 5.602l.077 2.399-.7-.83c-1.4-1.647-3.838-3.138-5.86-3.592-.792-.181-.986-.272-.921-.428.142-.324.207-4.564.09-5.33l-.13-.725.597.052c.325.026.895.116 1.245.194Zm-16.377 3.994c.662.194 1.142.79 1.142 1.44v.505h-4.02v-2.075h1.206c.648 0 1.413.065 1.672.13Zm-3.98 4.02c17.997.077 18.023.077 18.93.35 1.959.609 3.152 1.322 4.383 2.619 1.517 1.608 2.321 3.371 2.555 5.614.065.662.13 1.336.13 1.491v.286l-4.5.038-4.512.04-.908.362c-1.854.727-3.462 2.347-4.162 4.176-.298.739-.363 1.18-.415 2.398-.052 1.362-.026 1.595.298 2.529.752 2.282 2.373 3.903 4.642 4.668.973.324 1.025.324 5.29.324h4.305l-.077 2.684c-.091 3.138-.273 4.084-1.154 5.783-.675 1.297-2.218 2.917-3.462 3.644a10.323 10.323 0 0 1-3.89 1.257c-1.453.143-27.1.143-28.552 0a10.25 10.25 0 0 1-3.89-1.257c-1.064-.623-2.659-2.218-3.28-3.28-1.077-1.855-1.362-3.424-1.375-7.508v-2.36h9.336v2.334c0 2.165.012 2.346.259 2.593.246.246.428.26 4.733.26 3.941 0 4.473.025 4.473.194 0 .389.545 1.258 1.115 1.828 1.556 1.504 4.318 1.478 5.887-.078 2.062-2.074 1.322-5.86-1.362-6.86-1.556-.582-3.423-.245-4.525.818-.57.57-1.115 1.44-1.115 1.828 0 .169-.454.195-3.695.195H16.47v-2.334c0-2.166-.013-2.347-.26-2.594-.246-.246-.427-.259-5.704-.259H5.06v-2.075h9.4c8.377 0 9.401.026 9.401.195 0 .389.545 1.258 1.115 1.828 1.556 1.504 4.318 1.478 5.887-.078 2.062-2.074 1.322-5.86-1.362-6.859-1.556-.583-3.423-.246-4.525.817-.57.57-1.115 1.44-1.115 1.828 0 .169-1.024.195-9.4.195H5.06v-2.075h5.446c5.277 0 5.458-.013 5.705-.26.246-.246.26-.427.26-3.111v-2.853h3.695c3.241 0 3.695.026 3.695.195 0 .389.545 1.258 1.115 1.828 1.102 1.063 2.97 1.4 4.525.817 2.684-.998 3.424-4.785 1.362-6.86-1.57-1.555-4.33-1.581-5.887-.077-.57.57-1.115 1.44-1.115 1.828 0 .169-.532.195-4.473.195-4.305 0-4.487.013-4.733.259-.246.246-.26.428-.26 3.112v2.852H5.06V20.9l.804.402.804.402 18.036.064Zm31.067 6.56c.649.39 1.025 1.012 1.025 1.738s-.376 1.348-1.025 1.737c-.324.182-.752.26-1.711.312l-1.284.064v-4.227l1.284.065c.96.052 1.387.13 1.711.311Zm-26.879.052c1.686 1.025.96 3.63-1.011 3.63a1.91 1.91 0 0 1-1.945-1.944 1.91 1.91 0 0 1 1.945-1.945c.35 0 .752.104 1.011.26Zm27.994 9.103c-.026 2.295-.103 3.85-.207 4.149-.363 1.141-1.569 2.347-2.71 2.71-.661.22-9.543.311-10.957.13-.57-.078-1.348-.286-1.737-.467-.908-.415-2.036-1.543-2.477-2.49-.31-.674-.35-.907-.35-2.113s.04-1.453.35-2.1c.74-1.596 2.256-2.698 4.059-2.957.505-.065 3.617-.13 6.937-.143 4.72 0 6.133-.039 6.483-.181.246-.091.506-.182.558-.182.064-.013.09 1.634.051 3.644Zm-27.994 1.27c1.686 1.025.96 3.631-1.011 3.631a1.91 1.91 0 0 1-1.945-1.945c0-1.504 1.672-2.464 2.956-1.686Zm0 9.336c1.686 1.025.96 3.63-1.011 3.63a1.91 1.91 0 0 1-1.945-1.944 1.91 1.91 0 0 1 1.945-1.945c.35 0 .752.104 1.011.26Z"/><path d="M41.936 36.017a3.785 3.785 0 0 0-1.79 1.725c-.272.545-.336.856-.336 1.66 0 .804.064 1.115.337 1.66A3.808 3.808 0 0 0 42 42.812c.843.376 2.464.272 3.28-.207 1.22-.714 1.777-1.725 1.79-3.216 0-.791-.065-1.102-.337-1.647-.649-1.31-1.75-1.97-3.294-1.97-.674 0-1.14.077-1.504.245Zm2.49 2.4c.363.362.44.544.44.985 0 .44-.077.622-.44.985s-.545.441-.986.441c-.44 0-.622-.078-.985-.44-.506-.506-.584-1.155-.22-1.764.259-.454.609-.623 1.257-.636.389-.013.584.078.934.428Z"/></g><defs><clipPath id="a"><path d="M0 0h64v64H0z"/></clipPath></defs></svg>